<svg xmlns="http://www.w3.org/2000/svg" xmlns:xlink="http://www.w3.org/1999/xlink" viewBox="0 0 217.32 184.68"><defs><style>.cls-1,.cls-24,.cls-26{fill:none;}.cls-2{fill:#f0f0f0;}.cls-3{clip-path:url(#clip-path);}.cls-4{fill:url(#linear-gradient);}.cls-5{clip-path:url(#clip-path-2);}.cls-6{fill:url(#linear-gradient-3);}.cls-7{fill:#fff;}.cls-8{fill:#d1e8e6;}.cls-9{fill:#ecf2f5;}.cls-10{fill:url(#linear-gradient-4);}.cls-11{fill:#f2f2f2;}.cls-12{opacity:0.1;isolation:isolate;}.cls-13{fill:#3f3d56;}.cls-14{fill:#ff6584;}.cls-15{fill:#3d415b;}.cls-16{fill:#ffe0bc;}.cls-17{fill:#efc9a3;}.cls-18{fill:#282c3c;}.cls-19{fill:#c2dff1;}.cls-20{fill:#a5c3d3;}.cls-21{fill:#fcd8b6;}.cls-22{fill:#33d18d;}.cls-23{fill:#8b4200;}.cls-24,.cls-26{stroke:#3d415b;stroke-miterlimit:10;}.cls-24{stroke-width:2px;}.cls-25{fill:#dfe2ef;}.cls-26{stroke-width:2.5px;}.cls-27{fill:#129093;}.cls-28{fill:#303348;}.cls-29{fill:#007c86;}.cls-30{fill:#29323d;}</style><clipPath id="clip-path" transform="translate(-0.03 -3.29)"><path class="cls-1" d="M142.19,78.94C107.7,58.1,91.43-5.93,38.18,32.33S7,149.21,58,168.22s116.66,8.28,135.14-27C224.74,80.82,165.33,92.92,142.19,78.94Z"/></clipPath><linearGradient id="linear-gradient" x1="11.09" y1="95.05" x2="205.83" y2="95.05" gradientTransform="matrix(1, 0, 0, -1, 0, 190)" gradientUnits="userSpaceOnUse"><stop offset="0" stop-color="#00bfc2"/><stop offset="0.25" stop-color="#00bbc5"/><stop offset="0.49" stop-color="#00afcf"/><stop offset="0.73" stop-color="#009bdf"/><stop offset="0.97" stop-color="#0080f5"/><stop offset="1" stop-color="#007cf8"/></linearGradient><clipPath id="clip-path-2" transform="translate(-0.03 -3.29)"><path class="cls-1" d="M145.8,74.94C111.32,54.1,95-9.93,41.79,28.33S10.63,145.21,61.65,164.22s116.67,8.28,135.14-27C228.35,76.82,168.94,88.92,145.8,74.94Z"/></clipPath><linearGradient id="linear-gradient-3" x1="5.9" y1="69.81" x2="217.36" y2="69.81" xlink:href="#linear-gradient"/><linearGradient id="linear-gradient-4" x1="22.07" y1="14.79" x2="78.49" y2="71.21" gradientTransform="matrix(1, 0, 0, 1, 0, 0)" xlink:href="#linear-gradient"/></defs><g id="OBJECTS"><path class="cls-2" d="M142.19,78.94C107.7,58.1,91.43-5.93,38.18,32.33S7,149.21,58,168.22s116.66,8.28,135.14-27C224.74,80.82,165.33,92.92,142.19,78.94Z" transform="translate(-0.03 -3.29)"/><path class="cls-2" d="M142.19,78.94C107.7,58.1,91.43-5.93,38.18,32.33S7,149.21,58,168.22s116.66,8.28,135.14-27C224.74,80.82,165.33,92.92,142.19,78.94Z" transform="translate(-0.03 -3.29)"/><g class="cls-3"><path class="cls-2" d="M2.29,153s29.41-29.49,78.53-15.5,78.05,2,72-72.15c0,0,69,9.63,60.19,58.69C202.22,183.6,63.55,206.32,2.29,153Z" transform="translate(-0.03 -3.29)"/></g><path class="cls-4" d="M145.8,74.94C111.32,54.1,95-9.93,41.79,28.33S10.63,145.21,61.65,164.22s116.67,8.28,135.14-27C228.35,76.82,168.94,88.92,145.8,74.94Z" transform="translate(-0.03 -3.29)"/><path class="cls-4" d="M145.8,74.94C111.32,54.1,95-9.93,41.79,28.33S10.63,145.21,61.65,164.22s116.67,8.28,135.14-27C228.35,76.82,168.94,88.92,145.8,74.94Z" transform="translate(-0.03 -3.29)"/><g class="cls-5"><path class="cls-6" d="M5.9,149s29.41-29.49,78.53-15.5,78,2,71.95-72.15c0,0,69,9.63,60.19,58.69C205.83,179.6,67.16,202.32,5.9,149Z" transform="translate(-0.03 -3.29)"/></g><circle class="cls-7" cx="3.93" cy="23.89" r="0.94"/><circle class="cls-7" cx="7.7" cy="23.89" r="0.94"/><circle class="cls-7" cx="11.47" cy="23.89" r="0.94"/><path class="cls-8" d="M145.45,24.14a49.76,49.76,0,0,1,3.63-3.78c2.49-2.14,5.34-5.92,14.46-3.13a21.52,21.52,0,0,1,2.07.79c.8.34,3.3.35,5.85-1.67,4-3.22,5.64-5.65,11.19-5.72,6.46-.09,7.47,8,12.5,10,3.2,1.31,11.62,2.62,13.37,3.2Z" transform="translate(-0.03 -3.29)"/><path class="cls-7" d="M95.61,48.2l-.47-1.33-.46,1.33a4.7,4.7,0,0,1-2.59,2.64h0a4.65,4.65,0,0,1,2.59,2.63l.46,1.34.47-1.34a4.62,4.62,0,0,1,2.59-2.63h0A4.67,4.67,0,0,1,95.61,48.2Z" transform="translate(-0.03 -3.29)"/><path class="cls-7" d="M53.5,124.5,53,123.17l-.46,1.33A4.67,4.67,0,0,1,50,127.14h0a4.62,4.62,0,0,1,2.59,2.63l.47,1.34.47-1.34a4.6,4.6,0,0,1,2.58-2.63h0A4.67,4.67,0,0,1,53.5,124.5Z" transform="translate(-0.03 -3.29)"/><path class="cls-7" d="M179.73,116.46l-.31-.88-.31.88a3.06,3.06,0,0,1-1.7,1.74h0a3.06,3.06,0,0,1,1.7,1.74l.31.88.31-.88a3,3,0,0,1,1.71-1.74h0A3,3,0,0,1,179.73,116.46Z" transform="translate(-0.03 -3.29)"/><path class="cls-7" d="M33.15,72.17l-.3-.88-.31.88a3.08,3.08,0,0,1-1.71,1.74h0a3.08,3.08,0,0,1,1.71,1.74l.31.88.3-.88a3.11,3.11,0,0,1,1.71-1.74h0A3.11,3.11,0,0,1,33.15,72.17Z" transform="translate(-0.03 -3.29)"/><circle class="cls-7" cx="136.7" cy="54.46" r="0.49" transform="translate(-5.58 13.52) rotate(-6.9)"/><path class="cls-7" d="M122.36,58.7l4.6-1s.23,2-2.3,2.36a1.86,1.86,0,0,1-2.28-1.32Z" transform="translate(-0.03 -3.29)"/><ellipse class="cls-9" cx="77.72" cy="87.48" rx="2.92" ry="3.55" transform="translate(-23.58 25.55) rotate(-18.31)"/></g><g id="Layer_5" data-name="Layer 5"><path class="cls-10" d="M87,45.69a33.9,33.9,0,0,1-2.93,13.85q-.24.54-.51,1.08A34,34,0,0,1,19,45.69c0-.78,0-1.56.08-2.34,0-.39.06-.79.1-1.18A34,34,0,0,1,87,45.69Z" transform="translate(-0.03 -3.29)"/></g><g id="Layer_2" data-name="Layer 2"><path class="cls-11" d="M87.46,43.72c-7.2-5.38-18.48-10.47-30.94-14C45.17,26.58,34.1,25,25.35,25.43l-.05-1c8.86-.39,20,1.16,31.49,4.37,12.58,3.52,24,8.67,31.28,14.13Z" transform="translate(-0.03 -3.29)"/><path class="cls-12" d="M83.77,61.71c-.16.37-.33.73-.5,1.09-1,.1-2,.18-3.14.23-.91,0-1.85.06-2.8.06a110,110,0,0,1-28.69-4.42C37.19,55.46,26.83,51,19.47,46l-.74-.51c0-.39.06-.78.1-1.17.39.28.79.56,1.21.83,7.27,4.89,17.53,9.33,28.87,12.51a109.25,109.25,0,0,0,28.41,4.38c.94,0,1.87,0,2.76-.06Q82,61.92,83.77,61.71Z" transform="translate(-0.03 -3.29)"/><path class="cls-11" d="M77.33,62.28a110.42,110.42,0,0,1-28.69-4.42c-11.45-3.21-21.81-7.7-29.17-12.64s-11-10-9.92-14,6.71-6.4,15.75-6.81l.05,1A31.36,31.36,0,0,0,15.12,27.3c-2.56,1-4.1,2.45-4.59,4.19s.1,3.75,1.74,6A31.5,31.5,0,0,0,20,44.37c7.27,4.88,17.53,9.32,28.87,12.5a108.88,108.88,0,0,0,28.41,4.39q1.41,0,2.76-.06a31.41,31.41,0,0,0,10.23-1.87c2.56-1,4.1-2.45,4.59-4.19C95.77,52,93.13,48,87.46,43.72l.61-.81a26.5,26.5,0,0,1,6.42,6.39c1.44,2.21,1.91,4.27,1.39,6.11-1.12,4-6.71,6.4-15.75,6.81C79.22,62.26,78.28,62.28,77.33,62.28Z" transform="translate(-0.03 -3.29)"/><circle class="cls-11" cx="53.55" cy="4.03" r="0.39"/><circle class="cls-11" cx="1.82" cy="20.67" r="0.39"/><circle class="cls-11" cx="0.39" cy="46.92" r="0.39"/><circle class="cls-11" cx="79.93" cy="6.37" r="0.26"/><circle class="cls-11" cx="111.26" cy="43.02" r="0.26"/><circle class="cls-11" cx="96.96" cy="31.06" r="0.26"/><circle class="cls-11" cx="25.35" cy="12.22" r="0.26"/><circle class="cls-11" cx="96.05" cy="39.51" r="0.26"/><circle class="cls-11" cx="3.51" cy="65.64" r="0.26"/><circle class="cls-11" cx="18.98" cy="76.3" r="0.26"/><polygon class="cls-11" points="80.19 81.53 79.84 81.53 79.84 81.17 79.64 81.17 79.64 81.53 79.28 81.53 79.28 81.72 79.64 81.72 79.64 82.08 79.84 82.08 79.84 81.72 80.19 81.72 80.19 81.53"/><polygon class="cls-11" points="104.24 76.2 103.88 76.2 103.88 75.84 103.69 75.84 103.69 76.2 103.33 76.2 103.33 76.39 103.69 76.39 103.69 76.75 103.88 76.75 103.88 76.39 104.24 76.39 104.24 76.2"/><circle class="cls-13" cx="53.16" cy="17.94" r="2.86"/><circle class="cls-13" cx="31.19" cy="38.86" r="2.86"/><circle class="cls-13" cx="62.78" cy="67.59" r="2.86"/><circle class="cls-13" cx="53.16" cy="43.28" r="2.86"/><circle class="cls-13" cx="32.62" cy="59.01" r="2.86"/><circle class="cls-13" cx="68.5" cy="27.94" r="2.86"/><circle class="cls-13" cx="77.98" cy="47.31" r="2.86"/><circle class="cls-7" cx="53.16" cy="30.8" r="3.77"/><path class="cls-14" d="M53.19,28.63A5.33,5.33,0,0,0,47.86,34c0,2.94,5.33,12.61,5.33,12.61S58.52,36.9,58.52,34A5.33,5.33,0,0,0,53.19,28.63Zm0,7.93a2.47,2.47,0,1,1,2.47-2.47,2.47,2.47,0,0,1-2.47,2.47Z" transform="translate(-0.03 -3.29)"/><circle class="cls-7" cx="32.62" cy="46.92" r="3.77"/><path class="cls-14" d="M32.65,44.75a5.33,5.33,0,0,0-5.32,5.33c0,2.94,5.32,12.61,5.32,12.61S38,53,38,50.08A5.33,5.33,0,0,0,32.65,44.75Zm0,7.93a2.47,2.47,0,1,1,2.47-2.47,2.47,2.47,0,0,1-2.47,2.47Z" transform="translate(-0.03 -3.29)"/><circle class="cls-7" cx="77.98" cy="35.22" r="3.77"/><path class="cls-14" d="M78,33.05a5.33,5.33,0,0,0-5.33,5.33C72.69,41.32,78,51,78,51s5.33-9.67,5.33-12.61A5.33,5.33,0,0,0,78,33.05ZM78,41a2.47,2.47,0,1,1,2.47-2.47A2.47,2.47,0,0,1,78,41Z" transform="translate(-0.03 -3.29)"/><circle class="cls-7" cx="53.16" cy="5.46" r="3.77"/><path class="cls-14" d="M53.19,3.29a5.33,5.33,0,0,0-5.33,5.33c0,2.94,5.33,12.6,5.33,12.6s5.33-9.66,5.33-12.6A5.33,5.33,0,0,0,53.19,3.29Zm0,7.93a2.47,2.47,0,1,1,2.47-2.47,2.48,2.48,0,0,1-2.47,2.47Z" transform="translate(-0.03 -3.29)"/><circle class="cls-7" cx="62.78" cy="55.5" r="3.77"/><path class="cls-14" d="M62.81,53.33a5.33,5.33,0,0,0-5.33,5.33c0,2.94,5.33,12.6,5.33,12.6s5.33-9.66,5.33-12.6A5.33,5.33,0,0,0,62.81,53.33Zm0,7.93a2.47,2.47,0,1,1,2.47-2.47,2.48,2.48,0,0,1-2.47,2.47Z" transform="translate(-0.03 -3.29)"/><circle class="cls-7" cx="31.19" cy="26.51" r="3.77"/><path class="cls-14" d="M31.23,24.34a5.33,5.33,0,0,0-5.33,5.33c0,2.95,5.33,12.61,5.33,12.61s5.32-9.66,5.32-12.61A5.33,5.33,0,0,0,31.23,24.34Zm0,7.93a2.47,2.47,0,1,1,2.46-2.47,2.46,2.46,0,0,1-2.46,2.47Z" transform="translate(-0.03 -3.29)"/><circle class="cls-7" cx="68.5" cy="15.99" r="3.77"/><path class="cls-14" d="M68.53,13.82a5.32,5.32,0,0,0-5.33,5.32c0,2.95,5.33,12.61,5.33,12.61s5.33-9.66,5.33-12.61A5.33,5.33,0,0,0,68.53,13.82Zm0,7.92A2.47,2.47,0,1,1,71,19.27a2.46,2.46,0,0,1-2.47,2.47Z" transform="translate(-0.03 -3.29)"/></g><g id="Layer_4" data-name="Layer 4"><rect class="cls-15" x="31.47" y="98.83" width="108.95" height="1.69"/><polygon class="cls-16" points="127.57 174.99 128.72 179.13 123.09 180.84 121.33 175.72 127.57 174.99"/><polygon class="cls-16" points="93.58 171.98 93.58 175.31 98.56 175.31 99.12 171.98 93.58 171.98"/><path class="cls-17" d="M102.45,96.1,95.13,96a3.48,3.48,0,0,0-3.28,3.65h10.69Z" transform="translate(-0.03 -3.29)"/><path class="cls-17" d="M134.28,68.57h0a3.36,3.36,0,0,1-3.72-2.92L129.13,54.5l6.68-.78,1.42,11.08a3.37,3.37,0,0,1-2.91,3.76Z" transform="translate(-0.03 -3.29)"/><path class="cls-18" d="M136.31,50l-1.4,2.9s-1.87,1.61-2.39-2.44c-.45-3.43-2.94-2.84-2.94-2.84s-8.54,6.46-13.56,2c-4-3.5,2.44-9.9,9.76-11.44l9.6,4.2Z" transform="translate(-0.03 -3.29)"/><path class="cls-19" d="M88.64,72.6l10,26.92H66.1L56.83,74.16a1.16,1.16,0,0,1,.69-1.49,1.12,1.12,0,0,1,.4-.07Z" transform="translate(-0.03 -3.29)"/><path class="cls-20" d="M88.44,72.6H90a2,2,0,0,1,1.86,1.3l9.36,25.39H98.37Z" transform="translate(-0.03 -3.29)"/><path class="cls-20" d="M66.19,99.29H98.37v2.57H68.54a2.35,2.35,0,0,1-2.35-2.35v-.22Z" transform="translate(-0.03 -3.29)"/><path class="cls-20" d="M98.65,102.12h20.1a1.3,1.3,0,0,0,1.3-1.3h0a1.3,1.3,0,0,0-1.3-1.3H98.65Z" transform="translate(-0.03 -3.29)"/><path class="cls-21" d="M115.7,95.75l-7.25-.16a3.5,3.5,0,0,0-3.25,3.69h10.6Z" transform="translate(-0.03 -3.29)"/><path class="cls-22" d="M49.74,94s8.29,0,6.57-8.5C56.31,85.46,47.61,86.32,49.74,94Z" transform="translate(-0.03 -3.29)"/><path class="cls-22" d="M48.7,93.5s-8.38,0-6.64-8.6C42.06,84.9,50.86,85.77,48.7,93.5Z" transform="translate(-0.03 -3.29)"/><path class="cls-22" d="M49.09,93.53S43,87.38,50.19,82C50.18,82,56,89.11,49.09,93.53Z" transform="translate(-0.03 -3.29)"/><polygon class="cls-23" points="55.76 89.52 42.36 89.52 44.49 98.83 53.45 98.83 55.76 89.52"/><line class="cls-24" x1="82.39" y1="100.52" x2="82.39" y2="166.15"/></g><g id="Layer_3" data-name="Layer 3"><path class="cls-25" d="M115,135.32h33.8A13.29,13.29,0,0,0,162,123.48l4.88-50.73H133.07l-.69,29.41Z" transform="translate(-0.03 -3.29)"/><path class="cls-15" d="M115,134.78l4.48-.17,5.14-.15c2-.07,4.22-.09,6.66-.15l7.89-.15,8.8-.08H149c.37,0,.8,0,1.12-.09s.66-.09,1-.16.68-.16,1-.26a11.84,11.84,0,0,0,3.8-2,12.08,12.08,0,0,0,4.55-7.25l.17-1.08.12-1.22.24-2.42.47-4.82.93-9.36,1.77-16.6,1.34-11.73.54-4.45a.77.77,0,0,1,1.54.15l-.32,4.47-.92,11.77L165,105.68l-.87,9.37-.45,4.82-.23,2.43-.11,1.21c-.06.46-.13.89-.2,1.34A14.4,14.4,0,0,1,152.89,136c-.42.12-.84.2-1.25.3s-.88.13-1.32.19-.78,0-1.18.07h-1.21l-8.8-.08-7.88-.15c-2.45-.05-4.68-.07-6.67-.15l-5.14-.15-4.47-.16a.56.56,0,0,1-.56-.55A.55.55,0,0,1,115,134.78Z" transform="translate(-0.03 -3.29)"/><line class="cls-26" x1="134.25" y1="133" x2="134.25" y2="168.82"/><path class="cls-17" d="M132.11,79.59l-7.53,18.58-.16.41a2.85,2.85,0,0,1-2.65,1.77l-21.43-.15a1.57,1.57,0,0,1-.22-3.13L121.33,94l-2.81,2.18,5.07-19.4A4.5,4.5,0,0,1,132.3,79C132.25,79.22,132.18,79.4,132.11,79.59Z" transform="translate(-0.03 -3.29)"/><path class="cls-27" d="M120.26,81.85,132,84.71l1.92-10.45a5.06,5.06,0,0,0-4.1-5.86l-.21,0h0A5.15,5.15,0,0,0,124,71.65Z" transform="translate(-0.03 -3.29)"/><path class="cls-28" d="M132.38,102.16,96.27,120.49a9.43,9.43,0,0,0-5.16,9l2.72,46.4h5.54l7.48-49.65L135,106.48Z" transform="translate(-0.03 -3.29)"/><path class="cls-18" d="M126,38.79s10-3.41,15.3,6.09a9.77,9.77,0,0,0,1.05,1.57c1.07,1.26,3.3,3.59,5.77,4.35,9.76,3,16,21.46-3.49,23.1C120.31,76,113.4,71.16,116.88,61.46c2.48-6.91.27-11.82.27-11.82Z" transform="translate(-0.03 -3.29)"/><path class="cls-29" d="M134,63.58l-5.2,2.31a8.46,8.46,0,0,0-5,7.83c.08,6.82,1.63,23.75,7.39,30.23h17.55c2.72-12,1.16-30.43,1.16-30.43a8.69,8.69,0,0,0-7.64-9Z" transform="translate(-0.03 -3.29)"/><path class="cls-16" d="M118.34,46.73l16.38-2.14h0L136,54.3a8.13,8.13,0,0,1-7,9.12l-.26,0a8.12,8.12,0,0,1-9.11-7l-1.27-9.72Z" transform="translate(-0.03 -3.29)"/><circle class="cls-16" cx="136.85" cy="53.27" r="2.71" transform="translate(-5.44 13.53) rotate(-6.9)"/><path class="cls-15" d="M148.73,104H131.18l-28.09,17a7.7,7.7,0,0,0-3.07,9.69l21.56,49,6.24-.73-11.59-47.29c9.72-.41,27.78-1.88,32.5-7.14C156.72,115.55,148.73,104,148.73,104Z" transform="translate(-0.03 -3.29)"/><path class="cls-16" d="M145.85,79.08,138.31,98l-.17.42a2.86,2.86,0,0,1-2.67,1.8L114,100.1a1.59,1.59,0,0,1-.22-3.16L135,93.8,132.18,96l5-19.75a4.54,4.54,0,1,1,8.82,2.17.24.24,0,0,1,0,.08A5.22,5.22,0,0,1,145.85,79.08Z" transform="translate(-0.03 -3.29)"/><path class="cls-27" d="M134,81.42l11.73,2.91,1.92-10.64a5.14,5.14,0,0,0-4.15-6l-.16,0h0A5.16,5.16,0,0,0,137.7,71Z" transform="translate(-0.03 -3.29)"/><path class="cls-30" d="M119.69,180.75l-2.74,2.7-6.14,1.5a1.92,1.92,0,0,0-1.36,1.23l-.31.89a.66.66,0,0,0,.41.85.59.59,0,0,0,.23,0l19.78-.48a1.12,1.12,0,0,0,1.1-1.14v-.07l-1.56-5.6-3,.72a3.67,3.67,0,0,1-3-.31l-1.07-.62A1.94,1.94,0,0,0,119.69,180.75Z" transform="translate(-0.03 -3.29)"/><path class="cls-30" d="M91.3,176.86l-2.74,2.7-6.14,1.5a1.94,1.94,0,0,0-1.36,1.23l-.31.89a.67.67,0,0,0,.41.86.59.59,0,0,0,.23,0l17.9-.38a1.12,1.12,0,0,0,1.1-1.14.17.17,0,0,0,0-.07l-.46-5.72-2.21.73a3.67,3.67,0,0,1-3-.31l-1.06-.62A1.94,1.94,0,0,0,91.3,176.86Z" transform="translate(-0.03 -3.29)"/></g></svg>