<svg xmlns="http://www.w3.org/2000/svg" xmlns:xlink="http://www.w3.org/1999/xlink" viewBox="0 0 966.55 502.16"><defs><style>.cls-1{fill:#e6e6e6;}.cls-2,.cls-26,.cls-28{fill:#fff;}.cls-3{fill:#ccc;}.cls-4{fill:#2f2e41;}.cls-5{fill:#575b86;}.cls-6{fill:#ffb9b9;}.cls-7{fill:#3f3d56;}.cls-8{fill:#6c63ff;}.cls-9{fill:#b3b2c1;}.cls-10,.cls-13{fill:none;}.cls-10{stroke:#ff9800;stroke-miterlimit:10;stroke-width:4px;stroke-dasharray:12;opacity:0.3;}.cls-10,.cls-26,.cls-28,.cls-32{isolation:isolate;}.cls-11{fill:url(#linear-gradient);}.cls-12{fill:#009688;}.cls-14{fill:url(#linear-gradient-2);}.cls-15{fill:#795548;}.cls-16{fill:url(#linear-gradient-3);}.cls-17{fill:#00897b;}.cls-18{fill:url(#linear-gradient-4);}.cls-19{fill:url(#linear-gradient-5);}.cls-20{fill:url(#linear-gradient-6);}.cls-21{fill:url(#linear-gradient-7);}.cls-22{fill:url(#linear-gradient-8);}.cls-23{fill:url(#linear-gradient-9);}.cls-24{fill:url(#linear-gradient-10);}.cls-25,.cls-32{fill:#449ee2;}.cls-26{opacity:0.7;}.cls-27{fill:url(#linear-gradient-11);}.cls-28{opacity:0.5;}.cls-29{fill:url(#linear-gradient-12);}.cls-30{fill:#f2f2f2;}.cls-31{fill:lime;}.cls-32{opacity:0.2;}.cls-33{fill:url(#linear-gradient-13);}.cls-34{fill:url(#linear-gradient-14);}.cls-35{fill:url(#linear-gradient-15);}.cls-36{fill:url(#linear-gradient-16);}.cls-37{fill:url(#linear-gradient-17);}.cls-38{fill:url(#linear-gradient-18);}.cls-39{fill:url(#linear-gradient-19);}.cls-40{fill:#cfcce0;}.cls-41{fill:#a0616a;}.cls-42{fill:#d6d6e5;}</style><linearGradient id="linear-gradient" x1="798.39" y1="120.05" x2="798.39" y2="179.08" gradientTransform="matrix(1, 0.02, 0.02, -1, -145.77, 503.56)" gradientUnits="userSpaceOnUse"><stop offset="0" stop-color="gray" stop-opacity="0.25"/><stop offset="0.54" stop-color="gray" stop-opacity="0.12"/><stop offset="1" stop-color="gray" stop-opacity="0.1"/></linearGradient><linearGradient id="linear-gradient-2" x1="649.7" y1="344.77" x2="649.7" y2="410.51" gradientTransform="matrix(0, 1, 1, 0, 275.5, -254.78)" xlink:href="#linear-gradient"/><linearGradient id="linear-gradient-3" x1="774.63" y1="118.28" x2="774.63" y2="178.61" xlink:href="#linear-gradient"/><linearGradient id="linear-gradient-4" x1="630.55" y1="343.56" x2="630.55" y2="410.53" gradientTransform="matrix(0, 1, 1, 0, 256.94, -235.5)" xlink:href="#linear-gradient"/><linearGradient id="linear-gradient-5" x1="762.46" y1="108.43" x2="762.46" y2="148.65" xlink:href="#linear-gradient"/><linearGradient id="linear-gradient-6" x1="614.54" y1="341.02" x2="614.54" y2="385.82" gradientTransform="matrix(0, 1, 1, 0, 254.22, -206.26)" xlink:href="#linear-gradient"/><linearGradient id="linear-gradient-7" x1="753.37" y1="106.96" x2="753.37" y2="147.46" xlink:href="#linear-gradient"/><linearGradient id="linear-gradient-8" x1="608.56" y1="340.19" x2="608.56" y2="385.15" gradientTransform="matrix(0, 1, 1, 0, 248.97, -199.68)" xlink:href="#linear-gradient"/><linearGradient id="linear-gradient-9" x1="568.33" y1="339.08" x2="568.33" y2="407.2" gradientTransform="matrix(0, 1, 1, 0, 198.54, -170.89)" xlink:href="#linear-gradient"/><linearGradient id="linear-gradient-10" x1="695.63" y1="151.22" x2="695.63" y2="183.25" xlink:href="#linear-gradient"/><linearGradient id="linear-gradient-11" x1="487.72" y1="339.08" x2="487.72" y2="467.45" gradientTransform="matrix(1, 0.02, 0.02, -1, -13.47, 579.66)" xlink:href="#linear-gradient"/><linearGradient id="linear-gradient-12" x1="487.99" y1="423.48" x2="487.99" y2="470.42" gradientTransform="matrix(1, 0.02, 0.02, -1, -13.47, 579.66)" xlink:href="#linear-gradient"/><linearGradient id="linear-gradient-13" x1="596.53" y1="103.56" x2="596.53" y2="137.1" xlink:href="#linear-gradient"/><linearGradient id="linear-gradient-14" x1="448.88" y1="338.97" x2="448.88" y2="376.32" gradientTransform="matrix(0, 1, 1, 0, 94.24, -38.89)" xlink:href="#linear-gradient"/><linearGradient id="linear-gradient-15" x1="583.24" y1="103.56" x2="583.24" y2="137.1" xlink:href="#linear-gradient"/><linearGradient id="linear-gradient-16" x1="435.58" y1="338.97" x2="435.58" y2="376.32" gradientTransform="matrix(0, 1, 1, 0, 80.95, -25.92)" xlink:href="#linear-gradient"/><linearGradient id="linear-gradient-17" x1="586.77" y1="103.18" x2="586.77" y2="136.94" xlink:href="#linear-gradient"/><linearGradient id="linear-gradient-18" x1="441.72" y1="339.1" x2="441.72" y2="376.57" gradientTransform="matrix(0, 1, 1, 0, 86.89, -32.09)" xlink:href="#linear-gradient"/><linearGradient id="linear-gradient-19" x1="708.04" y1="181.57" x2="708.04" y2="186.76" gradientTransform="matrix(1, 0.02, 0.02, -1, -145.77, 503.56)" gradientUnits="userSpaceOnUse"><stop offset="0" stop-opacity="0.12"/><stop offset="0.55" stop-opacity="0.09"/><stop offset="1" stop-opacity="0.02"/></linearGradient></defs><g id="Layer_9" data-name="Layer 9"><path class="cls-1" d="M259.92,288.15h-2.57V217.67a40.8,40.8,0,0,0-40.8-40.8H67.22a40.8,40.8,0,0,0-40.79,40.8h0V604.35a40.8,40.8,0,0,0,40.79,40.8H216.55a40.8,40.8,0,0,0,40.8-40.8h0v-266h2.57Z" transform="translate(-7.85 -176.87)"/><path class="cls-2" d="M218.2,187.48H198.71a14.5,14.5,0,0,1-13.4,20H99.75A14.49,14.49,0,0,1,85.28,193a14.68,14.68,0,0,1,1.07-5.47H68.15A30.47,30.47,0,0,0,37.68,218h0V604.07a30.47,30.47,0,0,0,30.47,30.46h150a30.46,30.46,0,0,0,30.46-30.46h0V218a30.47,30.47,0,0,0-30.46-30.47Z" transform="translate(-7.85 -176.87)"/><path class="cls-1" d="M974.4,289.25h-2.58V218.76A40.79,40.79,0,0,0,931,178H781.7a40.8,40.8,0,0,0-40.8,40.79h0V605.45a40.8,40.8,0,0,0,40.8,40.79H931a40.79,40.79,0,0,0,40.79-40.79h0v-266h2.58Z" transform="translate(-7.85 -176.87)"/><path class="cls-2" d="M932.67,188.58H913.18a14.47,14.47,0,0,1-13.4,19.94H814.23a14.48,14.48,0,0,1-13.4-19.94H782.62a30.47,30.47,0,0,0-30.46,30.47h0V605.16a30.47,30.47,0,0,0,30.46,30.47h150a30.47,30.47,0,0,0,30.47-30.47h0V219.05a30.47,30.47,0,0,0-30.47-30.47Z" transform="translate(-7.85 -176.87)"/><path class="cls-1" d="M649,293.13H646.4V222.64a40.8,40.8,0,0,0-40.8-40.79H456.27a40.79,40.79,0,0,0-40.79,40.79h0V609.33a40.79,40.79,0,0,0,40.79,40.79H605.6a40.8,40.8,0,0,0,40.8-40.79h0v-266H649Z" transform="translate(-7.85 -176.87)"/><path class="cls-2" d="M607.25,192.46H587.76a14.49,14.49,0,0,1-7.94,18.87,14.64,14.64,0,0,1-5.47,1.07H488.8a14.48,14.48,0,0,1-13.4-19.94H457.2a30.47,30.47,0,0,0-30.47,30.46h0V609a30.47,30.47,0,0,0,30.47,30.47H607.25A30.47,30.47,0,0,0,637.71,609h0V222.92a30.46,30.46,0,0,0-30.46-30.46Z" transform="translate(-7.85 -176.87)"/></g><g id="Layer_10" data-name="Layer 10"><polygon class="cls-1" points="79.73 501.07 23.73 501.07 17.73 453.07 85.73 453.07 79.73 501.07"/><path class="cls-1" d="M17.2,612.18c14.42,19.31,44.35,21.35,44.35,21.35s6.56-29.28-7.86-48.59S9.33,563.59,9.33,563.59,2.78,592.87,17.2,612.18Z" transform="translate(-7.85 -176.87)"/><path class="cls-1" d="M90.66,619.44c-9.52,12.74-29.27,14.09-29.27,14.09s-4.32-19.32,5.19-32.07,29.27-14.08,29.27-14.08S100.17,606.7,90.66,619.44Z" transform="translate(-7.85 -176.87)"/><rect class="cls-2" y="499.92" width="966.55" height="2.24"/></g><g id="Layer_3" data-name="Layer 3"><rect class="cls-3" x="95.03" y="255.35" width="86.78" height="97.03"/><path class="cls-1" d="M147.41,647.77l-1.49,20.38a6.49,6.49,0,0,0,6,7,6.17,6.17,0,0,0,.86,0l10.47-.63a3.3,3.3,0,0,0,3.1-3.5,3.1,3.1,0,0,0-.09-.61l-5.81-23.24Z" transform="translate(-7.85 -176.87)"/><path class="cls-1" d="M235,659.82c12.32,2.89,21.13,7,26.91,12.53a11.85,11.85,0,0,0,7.59,3.25,19.35,19.35,0,0,0,8.82-1.21h0a3.5,3.5,0,0,0,2.07-2.88,3.56,3.56,0,0,0-1.49-3.29l-29.22-20.79-12.41,5-2.9,2.89a2.87,2.87,0,0,0,0,4.06,2.59,2.59,0,0,0,.63.47Z" transform="translate(-7.85 -176.87)"/><path class="cls-4" d="M197.06,327.06l-83.52-.77a71.4,71.4,0,0,1,9.22-34.8c4.07-7,4-14.66,3-21.1A28.37,28.37,0,0,1,135.57,244a31.54,31.54,0,0,1,21.18-7l1.62.07a31.57,31.57,0,0,1,25.93,15.6,26.33,26.33,0,0,1,3.13,16c-.53,5.21.73,10.47,3.7,15.78C196.24,296.08,197.34,311,197.06,327.06Z" transform="translate(-7.85 -176.87)"/><path class="cls-5" d="M252.94,648.52l-16.39,4.27L156.72,478.9l5,169.62H145.32c-17.51-79.8-49.14-171.9-34.92-201l84.81-5Z" transform="translate(-7.85 -176.87)"/><circle class="cls-6" cx="148.16" cy="98.91" r="22.09"/><path class="cls-6" d="M175.25,316.4l-36.34-2.14c3.56-8.17,5-16,3.56-23.52h27.08C169.49,296.48,172.35,306.4,175.25,316.4Z" transform="translate(-7.85 -176.87)"/><polygon class="cls-5" points="190.21 272.09 110.39 277.79 118.59 136.32 132.49 132.4 148.16 135.97 163.84 128.13 173.82 131.69 190.21 272.09"/><path class="cls-1" d="M131.78,550.88,77.26,538.41c16.21-53.76,45.42-176.75,36-220.58L141.76,305Z" transform="translate(-7.85 -176.87)"/><path class="cls-1" d="M105.41,395.51,84.74,382.68l17.63-51.62A24.35,24.35,0,0,1,113,318.41L119,315l-3.56,52Z" transform="translate(-7.85 -176.87)"/><path class="cls-1" d="M245.46,539.12c-17.21,10-60.23,15.5-79.11,8.55-1.39-48.57-4.12-186,4.63-244.1l31.36,12.83-2.85,38.49C184.49,387.81,228,502.48,245.46,539.12Z" transform="translate(-7.85 -176.87)"/><polygon class="cls-1" points="235.11 212.23 215.87 205.81 190.21 176.59 194.49 139.53 237.25 199.4 235.11 212.23"/><path class="cls-6" d="M182.65,416.84a5.36,5.36,0,0,0,6.4,4l16.33-3.7L203,406.74l-16.33,3.7a5.36,5.36,0,0,0-4,6.4Z" transform="translate(-7.85 -176.87)"/><path class="cls-4" d="M175.25,270.08c-12.27-5.05-24.39-5.41-36.34-.72l-5-17.81h45.61Z" transform="translate(-7.85 -176.87)"/><path class="cls-1" d="M197.35,404.78l9.26,17.1c15.59-4.35,29.09-18.05,42-34.21l-3.56-11.4L223,382Z" transform="translate(-7.85 -176.87)"/><path class="cls-7" d="M190.58,369.5h-2.85c0-40.32-8.3-68.42-16.4-68.42l-.71-2.85c7.26,0,11.88,11.69,14.49,21.5C188.63,333,190.58,350.71,190.58,369.5Z" transform="translate(-7.85 -176.87)"/><path class="cls-7" d="M125,359.52h-2.85c0-36.93,8.36-59.87,20.67-59.87l-.72,2.85C133.6,302.5,125,320.13,125,359.52Z" transform="translate(-7.85 -176.87)"/><circle class="cls-7" cx="189.15" cy="370.21" r="7.13" transform="translate(-214.42 320.75) rotate(-80.78)"/><path class="cls-7" d="M113.61,376.62h-2.85c0-10.21,5.75-18.53,12.82-18.53V361C118.08,361,113.61,368,113.61,376.62Z" transform="translate(-7.85 -176.87)"/><path class="cls-7" d="M136.41,376.62h-2.85c0-8.64-4.47-15.67-10-15.67v-2.86C130.66,358.09,136.41,366.41,136.41,376.62Z" transform="translate(-7.85 -176.87)"/><circle class="cls-7" cx="127.14" cy="200.47" r="2.85"/><circle class="cls-7" cx="104.33" cy="200.47" r="2.85"/><polygon class="cls-8" points="68.7 174.25 86.48 177.43 127.14 235.23 105.54 230.15 68.7 174.25"/><path class="cls-7" d="M73.39,350.42A1.52,1.52,0,0,0,71.9,352a1.54,1.54,0,0,0,.25.81l38,57.66a1.52,1.52,0,0,0,.92.64l17.68,4.16a1.51,1.51,0,0,0,1.81-1.13,1.48,1.48,0,0,0-.23-1.21L88.61,353.55a1.54,1.54,0,0,0-1-.62l-14-2.49A1.42,1.42,0,0,0,73.39,350.42Z" transform="translate(-7.85 -176.87)"/><path class="cls-6" d="M97.1,391.64l1.05,10.64,16.67-1.66A5.34,5.34,0,0,0,113.76,390Z" transform="translate(-7.85 -176.87)"/><path class="cls-1" d="M82.6,390.41a13.76,13.76,0,0,0,13.74,13.65h2.74l2-16.62-16.52-5.95Z" transform="translate(-7.85 -176.87)"/><path class="cls-4" d="M851.53,266.51s-12.86-4.59-21.12,13.77-21.12,38.56-21.12,38.56l7.35,1.84s1.83-12.86,6.42-14.69l-1.83,16.52s55.08,19.28,79.87-1.83l-.91-6.43s3.67.92,3.67,6.43l2.75-2.76s-2.75-5.51-11-12.85c-5.43-4.82-7.29-14-7.93-19.73a23.88,23.88,0,0,0-5.5-13C876.68,266,866.67,259.21,851.53,266.51Z" transform="translate(-7.85 -176.87)"/><path class="cls-6" d="M838,338.5l-13.32-16.64-10-34.12L852.94,247s8.33-31.62.84-29.95-9.16,25-9.16,25l-48.26,37.44s5,52.42,19.14,70.73l10.82,34.11Z" transform="translate(-7.85 -176.87)"/><path class="cls-6" d="M874.58,338.5l13.31-16.64,10-34.12L859.6,247s-8.32-31.62-.83-29.95,9.15,25,9.15,25l48.26,37.44s-5,52.42-19.14,70.73l-10.81,34.11Z" transform="translate(-7.85 -176.87)"/><circle class="cls-6" cx="848.42" cy="125.85" r="21.63"/><path class="cls-6" d="M846.29,314.37s.83,17.47-4.16,23.3-10,35.78,14.14,36.61,21.64-25,21.64-25l-5-14.15s-7.48-10.81-5-20.8Z" transform="translate(-7.85 -176.87)"/><path class="cls-6" d="M823.82,508.24l17.89,5.41s14.56-8.74,14.56-.42-5,19.14-3.33,26.63,5,25.79,0,25.79-15-32.45-15-32.45l-16.64-9.15Z" transform="translate(-7.85 -176.87)"/><path class="cls-6" d="M846.29,624.73l-6.66,25.79s-5.82,7.49,0,10.82c2.73,1.56,4.73,4.77,6.09,7.74a14.22,14.22,0,0,0,14,8.46c2.84-.24,5.23-1.36,5.82-4.28a6.74,6.74,0,0,0-1.29-5.24c-6.14-8.3-7.53-13.75-7.53-13.75l2.49-29.12Z" transform="translate(-7.85 -176.87)"/><path class="cls-4" d="M830.18,306.56s7.34-10.1,13.77-11.93,7.34-11,7.34-11,16.53,18.36,26.63,19.28.92-22,.92-22l-18.37-4.59L843,278.1l-13.77,9.18Z" transform="translate(-7.85 -176.87)"/><path class="cls-4" d="M816.33,445,813,451.66S732.3,477.45,739,501.58s44.1,17.48,44.1,17.48l41.6,7.49,4.16-18.31-29.12-7.49,49.93-18.3,1.66,84.87-6.66,60.74,16.65,1.66s18.3-55.75,15.8-79c0,0,30.79-94.86,13.32-109S816.33,445,816.33,445Z" transform="translate(-7.85 -176.87)"/><path class="cls-9" d="M857.25,349.33l-13-15.69-8.8,4-9.15,29.12A30.92,30.92,0,0,0,828,395.91s1.67,10-.83,12.48-3.33,18.31-3.33,18.31L813,447.5s61.57,10.82,79.87-4.16c0,0-9.6-35.41-3.78-46.23s6.66-27.4,0-34.89-13.69-27.05-13.69-27.05l-4-2.58Z" transform="translate(-7.85 -176.87)"/></g><g id="Layer_14" data-name="Layer 14"><circle class="cls-10" cx="474.98" cy="184.1" r="49.39"/><circle class="cls-10" cx="605.45" cy="177.52" r="49.39"/><g id="ff8ee4b4-5abc-4927-bead-5d69132ee8f9"><path class="cls-11" d="M631.92,373.94a12.23,12.23,0,0,1-3.11-8.43,12.4,12.4,0,0,1,6.34-10.45A7.27,7.27,0,0,1,634,351a7.55,7.55,0,0,1,7.86-7.23,7.65,7.65,0,0,1,7.23,5.52,11.51,11.51,0,0,1,9.92-5.1,11.26,11.26,0,0,1,11.16,11.33,10.5,10.5,0,0,1-.8,3.79c.24,0,.47,0,.71,0a9,9,0,0,1,9,9.09,8.87,8.87,0,0,1-.06.89,11,11,0,0,1,6.64,10.28,11.21,11.21,0,0,1-11.67,10.73,10.69,10.69,0,0,1-2-.21c0,.37,0,.74,0,1.11a12.56,12.56,0,0,1-13.09,12,13,13,0,0,1-7.22-2.37,9.71,9.71,0,0,1-6.24,2,9.4,9.4,0,0,1-9.33-9.45c0-.22,0-.44,0-.66h0a10.06,10.06,0,0,1-10-10.13A9.86,9.86,0,0,1,631.92,373.94Z" transform="translate(-7.85 -176.87)"/></g><path id="c200c6c4-addf-434c-9e0f-5ce7230e9a19" class="cls-12" d="M633,373.93a11.7,11.7,0,0,1-3-8.07,11.87,11.87,0,0,1,6.07-10,6.94,6.94,0,0,1-1.12-3.93,7.23,7.23,0,0,1,7.52-6.92,7.33,7.33,0,0,1,6.93,5.28,11,11,0,0,1,9.47-4.87,10.77,10.77,0,0,1,10.69,10.85,10.34,10.34,0,0,1-.76,3.63l.67,0a8.64,8.64,0,0,1,8.57,8.7,8.1,8.1,0,0,1-.06.86,10.53,10.53,0,0,1,6.35,9.84,10.72,10.72,0,0,1-11.16,10.27,11,11,0,0,1-1.9-.2,9.32,9.32,0,0,1,0,1.06,12,12,0,0,1-12.53,11.53,12.54,12.54,0,0,1-6.92-2.28,9.31,9.31,0,0,1-6,2,9,9,0,0,1-8.92-9.06,4.46,4.46,0,0,1,0-.63h0a9.64,9.64,0,0,1-9.56-9.7A9.44,9.44,0,0,1,633,373.93Z" transform="translate(-7.85 -176.87)"/><line id="_4f2fbb80-d4ec-4696-8eab-975803e285fc" data-name="4f2fbb80-d4ec-4696-8eab-975803e285fc" class="cls-13" x1="646.15" y1="185.2" x2="644.54" y2="250.92"/><rect class="cls-14" x="620.27" y="393.14" width="65.74" height="3.58" transform="translate(234.48 861.32) rotate(-88.6)"/><rect class="cls-15" x="620.33" y="393.94" width="65.74" height="1.98" transform="translate(234.53 861.38) rotate(-88.6)"/><line id="_964f69dd-bb5e-4ecb-a4f0-6b0cfaf1e31d" data-name="964f69dd-bb5e-4ecb-a4f0-6b0cfaf1e31d" class="cls-13" x1="645.87" y1="204.89" x2="634.43" y2="192.63"/><rect class="cls-15" x="647.01" y="367.24" width="1.98" height="16.77" transform="translate(-89.87 366.31) rotate(-43.03)"/><line id="_72c4e71e-02d3-4be2-bc6f-3754e61bbdeb" data-name="72c4e71e-02d3-4be2-bc6f-3754e61bbdeb" class="cls-13" x1="645.62" y1="215.17" x2="657.99" y2="206.94"/><rect class="cls-15" x="652.22" y="386.93" width="14.87" height="1.98" transform="translate(-112.26 253.74) rotate(-33.66)"/><g id="_09ddf46a-2bb3-497c-83d6-f7ff730d3d58" data-name="09ddf46a-2bb3-497c-83d6-f7ff730d3d58"><path class="cls-16" d="M655.52,375.68a13,13,0,0,0-.78-18.31,11.93,11.93,0,0,0-1.42-1.13,7.61,7.61,0,0,0-5.89-11.9,7.44,7.44,0,0,0-7.24,5.28,11,11,0,0,0-9.32-5.68,11.16,11.16,0,0,0-11.31,11,11.32,11.32,0,0,0,.58,3.91c-.23,0-.45-.05-.68-.05a9,9,0,0,0-9.08,8.84c0,.31,0,.61,0,.92a11.27,11.27,0,0,0-6.91,10.17,11.13,11.13,0,0,0,10.73,11.52,10.06,10.06,0,0,0,1.9-.12c0,.37-.07.75-.08,1.13a12.49,12.49,0,0,0,12,12.93,12.09,12.09,0,0,0,7.09-2.07,9,9,0,0,0,5.91,2.39,9.32,9.32,0,0,0,9.45-9.2c0-.23,0-.45,0-.68h0a10,10,0,0,0,10.12-9.86A10.11,10.11,0,0,0,655.52,375.68Z" transform="translate(-7.85 -176.87)"/></g><path id="c2060184-c570-49c2-acda-2f80a9472e25" class="cls-17" d="M654.09,375.58a12.15,12.15,0,0,0-.73-17.18,12.36,12.36,0,0,0-1.33-1.06,7.21,7.21,0,0,0,1.25-3.88,6.93,6.93,0,0,0-13.57-2.33,10.29,10.29,0,0,0-8.75-5.34,10.49,10.49,0,0,0-10.62,10.34,11,11,0,0,0,.55,3.68c-.21,0-.42-.05-.64-.05a8.41,8.41,0,0,0-8.52,8.3,8.17,8.17,0,0,0,0,.86,10.6,10.6,0,0,0-6.48,9.55,10.46,10.46,0,0,0,10.07,10.82,10.89,10.89,0,0,0,1.8-.12c0,.35-.07.71-.08,1.06a11.73,11.73,0,0,0,11.3,12.14,11.34,11.34,0,0,0,6.65-1.95,8.49,8.49,0,0,0,5.55,2.25,8.75,8.75,0,0,0,8.87-8.64c0-.22,0-.43,0-.63h0a9.39,9.39,0,0,0,9.5-9.26A9.5,9.5,0,0,0,654.09,375.58Z" transform="translate(-7.85 -176.87)"/><rect class="cls-18" x="600.49" y="393.7" width="66.97" height="2.69" transform="translate(215.66 842.29) rotate(-88.6)"/><rect class="cls-15" x="601.05" y="394.85" width="66.03" height="1.35" transform="translate(215.27 842.83) rotate(-88.6)"/><rect class="cls-15" x="631.6" y="375.87" width="16.36" height="1.35" transform="translate(-84.06 395.77) rotate(-45.8)"/><rect class="cls-15" x="627.5" y="381.15" width="1.35" height="14.35" transform="translate(-72.44 467.34) rotate(-52)"/><g id="db20f295-6229-40c0-b196-6bb997b23afd"><path class="cls-19" d="M603.18,394a8.33,8.33,0,0,1-2.12-5.75,8.46,8.46,0,0,1,4.33-7.12,4.89,4.89,0,0,1-.8-2.8,5.15,5.15,0,0,1,5.35-4.93,5.22,5.22,0,0,1,4.93,3.76,7.86,7.86,0,0,1,6.76-3.47,7.67,7.67,0,0,1,7.61,7.72,7.35,7.35,0,0,1-.54,2.58c.15,0,.31,0,.47,0a6.16,6.16,0,0,1,6.1,6.2c0,.2,0,.4,0,.61a7.51,7.51,0,0,1,4.53,7,7.65,7.65,0,0,1-8,7.31,7.76,7.76,0,0,1-1.36-.15,6.37,6.37,0,0,1,0,.76,8.57,8.57,0,0,1-8.92,8.2,8.89,8.89,0,0,1-4.9-1.6,6.61,6.61,0,0,1-4.25,1.38,6.4,6.4,0,0,1-6.36-6.44,2.22,2.22,0,0,1,0-.45h0a6.85,6.85,0,0,1-6.8-6.9A6.73,6.73,0,0,1,603.18,394Z" transform="translate(-7.85 -176.87)"/></g><path id="_3f6c00ca-74d6-4e4e-a4d6-8f160f37aa24" data-name="3f6c00ca-74d6-4e4e-a4d6-8f160f37aa24" class="cls-12" d="M603.88,394a7.93,7.93,0,0,1-2-5.5,8.06,8.06,0,0,1,4.14-6.81,4.76,4.76,0,0,1-.77-2.69,5,5,0,0,1,9.84-1.11,7.51,7.51,0,0,1,6.47-3.32,7.33,7.33,0,0,1,7.28,7.39,7,7,0,0,1-.51,2.47c.15,0,.3,0,.45,0a5.89,5.89,0,0,1,5.85,5.93,5.67,5.67,0,0,1-.05.58,7.2,7.2,0,0,1,4.34,6.71,7.32,7.32,0,0,1-7.61,7,8.08,8.08,0,0,1-1.29-.14,5.88,5.88,0,0,1,0,.73,8.2,8.2,0,0,1-8.54,7.85,8.54,8.54,0,0,1-4.71-1.55,6.36,6.36,0,0,1-4.07,1.33,6.13,6.13,0,0,1-6.09-6.17,3,3,0,0,1,0-.42h0a6.56,6.56,0,0,1-6.51-6.61A6.44,6.44,0,0,1,603.88,394Z" transform="translate(-7.85 -176.87)"/><line id="_8a7e076a-6ecd-440d-86c8-bd2eb9f9fc08" data-name="8a7e076a-6ecd-440d-86c8-bd2eb9f9fc08" class="cls-13" x1="610.38" y1="209.02" x2="609.28" y2="253.8"/><rect class="cls-20" x="595.24" y="407.06" width="44.8" height="2.44" transform="translate(186.5 838.86) rotate(-88.6)"/><rect class="cls-15" x="595.28" y="407.61" width="44.8" height="1.35" transform="translate(186.54 838.9) rotate(-88.6)"/><line id="cd90862a-73c1-467f-8a8f-23aaf7962413" class="cls-13" x1="610.19" y1="222.44" x2="602.39" y2="214.08"/><rect class="cls-15" x="613.46" y="389.42" width="1.35" height="11.43" transform="translate(-112.28 348.44) rotate(-43.03)"/><line id="f406e355-8aa2-4ce0-9f47-8fc27dbb63cd" class="cls-13" x1="610.02" y1="229.45" x2="618.45" y2="223.83"/><rect class="cls-15" x="617.02" y="402.83" width="10.13" height="1.35" transform="translate(-127.2 235.52) rotate(-33.66)"/><g id="af04bae7-87e5-447e-b22a-307a28405780"><path class="cls-21" d="M626.09,395.87a8.68,8.68,0,0,0-.5-12.27,8,8,0,0,0-1-.77,5.2,5.2,0,0,0,.88-2.78,5,5,0,0,0-9.71-1.66,7.38,7.38,0,0,0-6.24-3.82A7.5,7.5,0,0,0,602,382a7.75,7.75,0,0,0,.39,2.62l-.45,0a6,6,0,0,0-6.1,5.93h0a4.15,4.15,0,0,0,0,.61,7.56,7.56,0,0,0-4.64,6.83,7.47,7.47,0,0,0,7.2,7.73,6.83,6.83,0,0,0,1.28-.08,6.47,6.47,0,0,0,0,.76,8.38,8.38,0,0,0,8.07,8.68,8.12,8.12,0,0,0,4.76-1.39,6.1,6.1,0,0,0,4,1.61,6.27,6.27,0,0,0,6.35-6.18h0c0-.16,0-.31,0-.46h0a6.7,6.7,0,0,0,6.79-6.62A6.79,6.79,0,0,0,626.09,395.87Z" transform="translate(-7.85 -176.87)"/></g><path id="e5433075-9388-42ed-900f-702a5a1be897" class="cls-17" d="M625.14,395.81a8.16,8.16,0,0,0-.49-11.53,7.89,7.89,0,0,0-.9-.72,4.76,4.76,0,0,0,.84-2.6,4.66,4.66,0,0,0-9.11-1.57,6.94,6.94,0,0,0-5.88-3.58,7,7,0,0,0-7.12,6.95,7.34,7.34,0,0,0,.36,2.46c-.14,0-.27,0-.42,0a5.64,5.64,0,0,0-5.72,5.56,3.72,3.72,0,0,0,0,.58,7.09,7.09,0,0,0-4.35,6.41,7,7,0,0,0,6.76,7.25,6.91,6.91,0,0,0,1.2-.07,5.52,5.52,0,0,0-.05.71,7.88,7.88,0,0,0,7.58,8.15,7.65,7.65,0,0,0,4.47-1.31A5.7,5.7,0,0,0,616,414a5.89,5.89,0,0,0,6-5.8,3,3,0,0,0,0-.42h0a6.3,6.3,0,0,0,6.38-6.21h0A6.4,6.4,0,0,0,625.14,395.81Z" transform="translate(-7.85 -176.87)"/><rect class="cls-22" x="589.16" y="407.98" width="44.95" height="1.81" transform="matrix(0.02, -1, 1, 0.02, 180.04, 833.44)"/><rect class="cls-15" x="589.53" y="408.74" width="44.32" height="0.91" transform="translate(179.78 833.81) rotate(-88.6)"/><rect class="cls-15" x="610.04" y="396" width="10.98" height="0.91" transform="translate(-105.68 384.42) rotate(-45.8)"/><rect class="cls-15" x="607.28" y="399.55" width="0.91" height="9.63" transform="translate(-92.93 457.4) rotate(-52)"/><rect class="cls-23" x="537.61" y="359.17" width="68.12" height="76.53" transform="translate(152.5 782.32) rotate(-88.6)"/><rect class="cls-2" x="512.68" y="333.29" width="65.95" height="124.84" transform="translate(128.85 754.63) rotate(-88.6)"/><path class="cls-24" d="M614.68,370.93l-122.64-3,.79-32L611,338.81a4.47,4.47,0,0,1,4.37,4.58Z" transform="translate(-7.85 -176.87)"/><path class="cls-25" d="M492.79,337.18l117.11,2.87a4.46,4.46,0,0,1,4.36,4.58l-.62,25.45h0l-121.58-3h0l.73-29.92Z" transform="translate(-7.85 -176.87)"/><path class="cls-26" d="M493.33,337.18l117.1,2.87a4.48,4.48,0,0,1,4.37,4.58l-.62,25.45h0l-121.58-3h0l.73-29.92Z" transform="translate(-7.85 -176.87)"/><polygon class="cls-27" points="485.56 124.3 442.5 153.07 441.89 178.19 440.09 251.59 524.74 253.67 526.53 180.26 527.15 155.15 485.56 124.3"/><polygon class="cls-25" points="525.26 154.6 485.83 124.31 444.96 152.63 444.35 177.32 524.66 179.28 525.26 154.6"/><polygon class="cls-28" points="525.2 154.6 485.77 124.31 444.89 152.63 444.29 177.32 524.6 179.28 525.2 154.6"/><rect class="cls-2" x="455.37" y="351.09" width="72.19" height="80.33" transform="translate(80.44 696.12) rotate(-88.6)"/><polygon class="cls-29" points="530.06 169.37 485.54 135.91 438.9 167.14 436.19 155.69 485.9 121.34 533.87 158.08 530.06 169.37"/><polygon class="cls-25" points="529.69 167.7 485.59 133.92 439.9 165.5 438.23 155.22 485.88 122.3 531.86 157.51 529.69 167.7"/><rect class="cls-30" x="463.05" y="376.33" width="56.45" height="45.59" transform="translate(72.38 703.6) rotate(-88.6)"/><rect class="cls-25" x="486.96" y="353" width="9.77" height="45.59" transform="translate(96.27 681.41) rotate(-88.6)"/><rect class="cls-25" x="485.82" y="399.66" width="9.77" height="45.59" transform="translate(48.5 725.79) rotate(-88.6)"/><path class="cls-31" d="M567.41,408.92a.41.41,0,1,0,0-.81.41.41,0,0,0,0,.81Z" transform="translate(-7.85 -176.87)"/><rect class="cls-30" x="546.7" y="397.46" width="41.25" height="22.25" transform="translate(137.11 788.87) rotate(-88.6)"/><rect class="cls-30" x="587.53" y="377.11" width="15.2" height="20.9" transform="translate(185.26 796.14) rotate(-88.6)"/><rect class="cls-32" x="591.84" y="372.9" width="6.78" height="20.9" transform="translate(189.56 792.14) rotate(-88.6)"/><g id="_47cb54cf-6c9b-4864-bf0d-76585f8d162f" data-name="47cb54cf-6c9b-4864-bf0d-76585f8d162f"><path class="cls-33" d="M439.84,398.07a6.92,6.92,0,0,1-1.78-4.79,7.07,7.07,0,0,1,3.6-5.94A4.08,4.08,0,0,1,441,385a4.28,4.28,0,0,1,4.46-4.1,4.34,4.34,0,0,1,4.11,3.13,6.55,6.55,0,0,1,5.64-2.89,6.39,6.39,0,0,1,6.34,6.44,6.18,6.18,0,0,1-.45,2.16c.13,0,.27,0,.4,0a5.13,5.13,0,0,1,5.09,5.16c0,.17,0,.34,0,.51a6.25,6.25,0,0,1,3.77,5.84,6.36,6.36,0,0,1-6.63,6.09,6.85,6.85,0,0,1-1.11-.12c0,.21,0,.42,0,.63a7.17,7.17,0,0,1-7.44,6.85,7.44,7.44,0,0,1-4.1-1.36,5.56,5.56,0,0,1-3.55,1.17,5.34,5.34,0,0,1-5.29-5.38,2.3,2.3,0,0,1,0-.37h0a5.72,5.72,0,0,1-5.67-5.76A5.61,5.61,0,0,1,439.84,398.07Z" transform="translate(-7.85 -176.87)"/></g><path id="_3ed80c62-65f0-4ea6-94fa-12b45cf1e111" data-name="3ed80c62-65f0-4ea6-94fa-12b45cf1e111" class="cls-12" d="M440.42,398.06a6.59,6.59,0,0,1-1.69-4.58,6.72,6.72,0,0,1,3.45-5.68,3.9,3.9,0,0,1-.64-2.24,4.12,4.12,0,0,1,4.27-3.93h0a4.16,4.16,0,0,1,3.94,3,6.24,6.24,0,0,1,5.39-2.77,6.12,6.12,0,0,1,6.07,6.16,5.79,5.79,0,0,1-.43,2.06c.12,0,.25,0,.38,0A4.93,4.93,0,0,1,466,395a3.88,3.88,0,0,1,0,.48,6,6,0,0,1,3.61,5.6,6.09,6.09,0,0,1-6.34,5.83,6.38,6.38,0,0,1-1.08-.12c0,.2,0,.4,0,.61a6.85,6.85,0,0,1-7.12,6.55,7.12,7.12,0,0,1-3.91-1.3,5.27,5.27,0,0,1-3.39,1.11,5.1,5.1,0,0,1-5.07-5.14,2.17,2.17,0,0,1,0-.36h0a5.47,5.47,0,0,1-5.43-5.51A5.38,5.38,0,0,1,440.42,398.06Z" transform="translate(-7.85 -176.87)"/><line id="b49a21fb-81f1-4431-9ecd-ca46c91409d2" class="cls-13" x1="444.53" y1="214.46" x2="443.61" y2="251.79"/><rect class="cls-34" x="433.21" y="408.98" width="37.35" height="2.04" transform="translate(23.09 674.82) rotate(-88.6)"/><rect class="cls-15" x="433.24" y="409.43" width="37.35" height="1.12" transform="matrix(0.02, -1, 1, 0.02, 23.12, 674.86)"/><line id="_46369620-a42d-4543-9046-c39c6dd80f7a" data-name="46369620-a42d-4543-9046-c39c6dd80f7a" class="cls-13" x1="444.37" y1="225.64" x2="437.87" y2="218.67"/><rect class="cls-15" x="448.4" y="394.26" width="1.12" height="9.53" transform="translate(-159.36 236.79) rotate(-43.03)"/><line id="_062fca71-ec11-4619-a966-9015ca52f87c" data-name="062fca71-ec11-4619-a966-9015ca52f87c" class="cls-13" x1="444.23" y1="231.48" x2="451.25" y2="226.8"/><rect class="cls-15" x="451.37" y="405.45" width="8.45" height="1.12" transform="translate(-156.5 143.67) rotate(-33.66)"/><g id="a27ca12e-65b6-46c0-899b-83e3c1e240bd"><path class="cls-35" d="M426.55,397.75a7,7,0,0,1-1.79-4.8,7.06,7.06,0,0,1,3.61-5.93,4,4,0,0,1-.67-2.34,4.29,4.29,0,0,1,4.46-4.1,4.35,4.35,0,0,1,4.12,3.14,6.53,6.53,0,0,1,5.63-2.9,6.4,6.4,0,0,1,6.35,6.44,6.19,6.19,0,0,1-.46,2.16h.4a5.12,5.12,0,0,1,5.09,5.16,4.38,4.38,0,0,1,0,.51,6.25,6.25,0,0,1,3.78,5.84,6.38,6.38,0,0,1-6.63,6.1,7,7,0,0,1-1.12-.12c0,.21,0,.41,0,.63a7.15,7.15,0,0,1-7.44,6.84,7.41,7.41,0,0,1-4.11-1.35,5.46,5.46,0,0,1-3.54,1.16,5.34,5.34,0,0,1-5.3-5.38,2.31,2.31,0,0,1,0-.37h0a5.71,5.71,0,0,1-5.67-5.75A5.56,5.56,0,0,1,426.55,397.75Z" transform="translate(-7.85 -176.87)"/></g><path id="_685c56b8-497f-4668-a7ee-09f5fbc3598c" data-name="685c56b8-497f-4668-a7ee-09f5fbc3598c" class="cls-12" d="M427.12,397.74a6.66,6.66,0,0,1,1.76-10.27,3.91,3.91,0,0,1-.63-2.23,4.09,4.09,0,0,1,4.27-3.93h0a4.14,4.14,0,0,1,3.93,3,6.28,6.28,0,0,1,5.4-2.77,6.12,6.12,0,0,1,6.06,6.16,5.68,5.68,0,0,1-.43,2.07c.13,0,.26,0,.38,0a4.9,4.9,0,0,1,4.87,4.94,4.15,4.15,0,0,1,0,.49,6,6,0,0,1,3.61,5.59,6.1,6.1,0,0,1-6.35,5.84,6.61,6.61,0,0,1-1.08-.12c0,.2,0,.4,0,.6a6.85,6.85,0,0,1-7.12,6.55,7.07,7.07,0,0,1-3.92-1.3,5.25,5.25,0,0,1-3.39,1.12,5.11,5.11,0,0,1-5.07-5.15,2,2,0,0,1,0-.35h0a5.48,5.48,0,0,1-5.43-5.51A5.38,5.38,0,0,1,427.12,397.74Z" transform="translate(-7.85 -176.87)"/><line id="_6da80e84-a8c0-407e-a753-005b95fbf056" data-name="6da80e84-a8c0-407e-a753-005b95fbf056" class="cls-13" x1="431.23" y1="214.13" x2="430.32" y2="251.46"/><rect class="cls-36" x="419.92" y="408.65" width="37.35" height="2.04" transform="translate(10.45 661.22) rotate(-88.6)"/><rect class="cls-15" x="419.95" y="409.11" width="37.35" height="1.12" transform="matrix(0.02, -1, 1, 0.02, 10.48, 661.25)"/><line id="_956986cd-9b04-40a5-a6ac-3e412b0f623a" data-name="956986cd-9b04-40a5-a6ac-3e412b0f623a" class="cls-13" x1="431.07" y1="225.31" x2="424.57" y2="218.35"/><rect class="cls-15" x="435.11" y="393.94" width="1.12" height="9.53" transform="translate(-162.72 227.63) rotate(-43.03)"/><line id="_52f85bb0-cc07-4469-ba3e-635298721117" data-name="52f85bb0-cc07-4469-ba3e-635298721117" class="cls-13" x1="430.93" y1="231.16" x2="437.96" y2="226.48"/><rect class="cls-15" x="438.07" y="405.12" width="8.45" height="1.12" transform="translate(-158.54 136.25) rotate(-33.66)"/><g id="_2b13a509-cfb1-48b6-9a8a-884e17259990" data-name="2b13a509-cfb1-48b6-9a8a-884e17259990"><path class="cls-37" d="M456.78,398.78a7.23,7.23,0,0,0-.42-10.24,7.43,7.43,0,0,0-.81-.65,4.23,4.23,0,0,0,.75-2.31,4.14,4.14,0,0,0-8.1-1.39A6.14,6.14,0,0,0,443,381a6.24,6.24,0,0,0-6.33,6.15h0a6.44,6.44,0,0,0,.32,2.18l-.38,0a5,5,0,0,0-5.08,4.95v0a2.9,2.9,0,0,0,0,.51,6.3,6.3,0,0,0-3.86,5.69,6.23,6.23,0,0,0,6,6.45,5.55,5.55,0,0,0,1.07-.07c0,.21,0,.42-.05.64a7,7,0,0,0,6.73,7.22,6.74,6.74,0,0,0,4-1.16,5.07,5.07,0,0,0,3.31,1.34,5.22,5.22,0,0,0,5.28-5.15,1.61,1.61,0,0,0,0-.38h0a5.59,5.59,0,0,0,5.67-5.51A5.68,5.68,0,0,0,456.78,398.78Z" transform="translate(-7.85 -176.87)"/></g><path id="ffc97756-bf62-44e2-b6c0-20f8128ede8f" class="cls-17" d="M456,398.73a6.81,6.81,0,0,0-.41-9.61,7,7,0,0,0-.75-.6,4,4,0,0,0,.7-2.17,3.88,3.88,0,0,0-7.6-1.3,5.77,5.77,0,0,0-4.9-3,5.86,5.86,0,0,0-5.92,5.79,5.93,5.93,0,0,0,.3,2l-.35,0a4.7,4.7,0,0,0-4.77,4.64,2.57,2.57,0,0,0,0,.48,5.93,5.93,0,0,0-3.63,5.34,5.85,5.85,0,0,0,5.64,6.05,5.6,5.6,0,0,0,1-.06,5.85,5.85,0,0,0,0,.59,6.55,6.55,0,0,0,6.32,6.79,6.26,6.26,0,0,0,3.72-1.09,4.77,4.77,0,0,0,3.1,1.26,4.9,4.9,0,0,0,5-4.84h0c0-.12,0-.23,0-.35h0a5.25,5.25,0,0,0,5.32-5.18h0A5.34,5.34,0,0,0,456,398.73Z" transform="translate(-7.85 -176.87)"/><rect class="cls-38" x="425.99" y="408.87" width="37.48" height="1.51" transform="translate(16.48 667.31) rotate(-88.6)"/><rect class="cls-15" x="426.3" y="409.51" width="36.95" height="0.76" transform="translate(16.26 667.62) rotate(-88.6)"/><rect class="cls-15" x="443.4" y="398.89" width="9.15" height="0.76" transform="translate(-158.43 265.16) rotate(-45.8)"/><rect class="cls-15" x="441.1" y="401.84" width="0.76" height="8.03" transform="translate(-158 326.97) rotate(-52)"/><path class="cls-39" d="M566.63,334.21c-3.34-.08-3.47,5.1-.12,5.18S570,334.29,566.63,334.21Z" transform="translate(-7.85 -176.87)"/><circle class="cls-1" cx="680.66" cy="375.03" r="6.12"/><circle class="cls-1" cx="707.51" cy="425.44" r="6.12"/><circle class="cls-1" cx="686.78" cy="412.72" r="6.12"/><path class="cls-40" d="M696.58,676.52c-.11-.17-2.66-4.43-3.54-13.27-.81-8.11-.29-21.78,6.8-40.85,13.43-36.12-3.09-65.26-3.26-65.55l.81-.48a72.63,72.63,0,0,1,6.83,19.34,84.34,84.34,0,0,1-3.5,47c-13.4,36.06-3.44,53.13-3.33,53.3Z" transform="translate(-7.85 -176.87)"/><path class="cls-40" d="M691.33,555.2a6.6,6.6,0,1,1,6.6-6.6h0A6.62,6.62,0,0,1,691.33,555.2Zm0-12.25A5.65,5.65,0,1,0,697,548.6,5.65,5.65,0,0,0,691.33,543Z" transform="translate(-7.85 -176.87)"/><circle class="cls-40" cx="702.8" cy="394.34" r="6.12"/><path class="cls-40" d="M697.46,592.89a6.6,6.6,0,1,1,6.59-6.6A6.6,6.6,0,0,1,697.46,592.89Zm0-12.25a5.65,5.65,0,1,0,5.65,5.65,5.65,5.65,0,0,0-5.65-5.65Z" transform="translate(-7.85 -176.87)"/><path class="cls-40" d="M713.47,605.61a6.6,6.6,0,1,1,6.6-6.6h0A6.61,6.61,0,0,1,713.47,605.61Zm0-12.25a5.65,5.65,0,1,0,5.66,5.65A5.65,5.65,0,0,0,713.47,593.36Z" transform="translate(-7.85 -176.87)"/><circle class="cls-40" cx="684.9" cy="441.93" r="6.12"/><path class="cls-40" d="M700.28,676.75s-6.12-15.08,12.25-26.39Z" transform="translate(-7.85 -176.87)"/><path class="cls-40" d="M692.75,676.47s-2.79-16-24.36-15.89Z" transform="translate(-7.85 -176.87)"/></g><g id="Layer_12" data-name="Layer 12"><path class="cls-41" d="M411.23,372.57l19,37.61L487,436c6.06,10.25,25.34,11,26.74,4.4C515.36,433,490.37,421,490.37,421l-47.51-32.13L438.7,361.2Z" transform="translate(-7.85 -176.87)"/><polygon class="cls-41" points="405.62 448.11 402.12 476.14 422.44 477.55 424.54 448.11 405.62 448.11"/><path class="cls-4" d="M416.27,648.81a54.46,54.46,0,0,1-5-6.13c-2.92-4-5.5,16.64-5.5,16.64s-2.8,8.41-2.1,12.62,16.82,4.2,19.62,3.5,16.82,0,16.82,0h21c18.22-8.41,0-14,0-14-5.6-.7-24.53-18.22-24.53-18.22l-4.2-7.7c-2.8-.71-5.61,9.81-5.61,9.81Z" transform="translate(-7.85 -176.87)"/><polygon class="cls-41" points="353.06 448.46 349.56 476.49 369.88 477.9 371.98 448.46 353.06 448.46"/><path class="cls-4" d="M363.71,649.16a55.57,55.57,0,0,1-5-6.13c-2.91-4-5.5,16.64-5.5,16.64s-2.8,7.71-2.1,11.92,16.82,4.2,19.62,3.5,16.82.7,16.82.7h21c18.22-8.41,0-14,0-14-5.6-.7-24.52-18.22-24.52-18.22l-4.21-7.7c-2.8-.7-5.6,9.81-5.6,9.81Z" transform="translate(-7.85 -176.87)"/><path class="cls-4" d="M384,444.54c-2.81,3.5-1.41,15.41-1.41,15.41s-4.9,38.54-2.8,42.05-1.4,6.31-3.5,11.21S372.12,530,372.12,530c-11.91,9.81-11.21,54.66-11.21,54.66l-4.2,39.94c1.4,4.21,21,4.91,23.82,4.21s11.21-63.77,11.21-63.77l18.93-35.74s-1.41,95.3-1.41,99.51,18.92,2.1,23.13,2.1,4.2-70.08,4.2-70.08l4.21-18.22,22.42-83.39v-9.81l-3.5-4.9S386.84,441,384,444.54Z" transform="translate(-7.85 -176.87)"/><circle class="cls-41" cx="407.02" cy="86.86" r="21.72"/><path class="cls-41" d="M425.73,273.9c-4.4,9.8-1.79,23.5,7,38.54L397,295.62l5.61-4.9-1.4-14Z" transform="translate(-7.85 -176.87)"/><path class="cls-42" d="M425.73,296.32c4.68,2.78,7.48,7.9,9.09,13.1a124,124,0,0,1,5.33,29.65l1.7,30.13,21,79.89c-18.22,15.42-28.73,11.91-53.26-.7s-27.33,4.2-27.33,4.2-2.1-.7,0-2.8,0,0-2.1-2.1,0,0,.7-2.1,0-.7-.7-1.41,2.81-7,2.81-7l-5.61-52.56-7-74.28c8.41-10.51,32.24-19.62,32.24-19.62l21.72,15.41c7,2.81,1.4-8.41,1.4-8.41Z" transform="translate(-7.85 -176.87)"/><path class="cls-41" d="M358.81,354.84l-2.8,42L391.74,448c0,11.91,6.31,14.72,6.31,14.72a93,93,0,0,0,6.31-11.92c3.5-7.71-2.1-14-2.1-14L377.73,385,388.24,359Z" transform="translate(-7.85 -176.87)"/><path class="cls-42" d="M370.72,310.69c-11.91,4.2-14,49.75-14,49.75,14-7.71,30.83,4.91,30.83,4.91s3.5-11.92,7.71-27.33a26.79,26.79,0,0,0-5.61-25.23S382.63,306.48,370.72,310.69Z" transform="translate(-7.85 -176.87)"/><path class="cls-4" d="M394.9,270.39c2.76-2.21,6.54,1.81,6.54,1.81l2.21-19.91s13.83,1.66,22.68-.55,10.23,8,10.23,8a71,71,0,0,0,.28-12.45c-.56-5-7.75-9.95-20.47-13.27S397,245.1,397,245.1C388.16,249.52,392.13,272.61,394.9,270.39Z" transform="translate(-7.85 -176.87)"/></g></svg>