<svg xmlns="http://www.w3.org/2000/svg" xmlns:xlink="http://www.w3.org/1999/xlink" viewBox="0 0 986.65 570.52"><defs><style>.cls-1{fill:#3f3d56;}.cls-2{fill:#e6e6e6;}.cls-3{fill:#f4f4f4;}.cls-4{fill:#ccc;}.cls-5{fill:#2f2e41;}.cls-6{fill:#575b86;}.cls-7{fill:#ffb9b9;}.cls-27,.cls-29,.cls-8{fill:#fff;}.cls-9{fill:#6c63ff;}.cls-10{fill:#b3b2c1;}.cls-11,.cls-14{fill:none;}.cls-11{stroke:#ff9800;stroke-miterlimit:10;stroke-width:4px;stroke-dasharray:12;opacity:0.3;}.cls-11,.cls-27,.cls-29,.cls-33{isolation:isolate;}.cls-12{fill:url(#linear-gradient);}.cls-13{fill:#009688;}.cls-15{fill:url(#linear-gradient-2);}.cls-16{fill:#795548;}.cls-17{fill:url(#linear-gradient-3);}.cls-18{fill:#00897b;}.cls-19{fill:url(#linear-gradient-4);}.cls-20{fill:url(#linear-gradient-5);}.cls-21{fill:url(#linear-gradient-6);}.cls-22{fill:url(#linear-gradient-7);}.cls-23{fill:url(#linear-gradient-8);}.cls-24{fill:url(#linear-gradient-9);}.cls-25{fill:url(#linear-gradient-10);}.cls-26,.cls-33{fill:#449ee2;}.cls-27{opacity:0.7;}.cls-28{fill:url(#linear-gradient-11);}.cls-29{opacity:0.5;}.cls-30{fill:url(#linear-gradient-12);}.cls-31{fill:#f2f2f2;}.cls-32{fill:lime;}.cls-33{opacity:0.2;}.cls-34{fill:url(#linear-gradient-13);}.cls-35{fill:url(#linear-gradient-14);}.cls-36{fill:url(#linear-gradient-15);}.cls-37{fill:url(#linear-gradient-16);}.cls-38{fill:url(#linear-gradient-17);}.cls-39{fill:url(#linear-gradient-18);}.cls-40{fill:url(#linear-gradient-19);}.cls-41{fill:#dbdbdb;}.cls-42{fill:#a0616a;}.cls-43{fill:#d6d6e5;}</style><linearGradient id="linear-gradient" x1="815.09" y1="134.76" x2="815.09" y2="201.83" gradientTransform="matrix(1, 0.01, 0.01, -1, -142.91, 516.22)" gradientUnits="userSpaceOnUse"><stop offset="0" stop-color="gray" stop-opacity="0.25"/><stop offset="0.54" stop-color="gray" stop-opacity="0.12"/><stop offset="1" stop-color="gray" stop-opacity="0.1"/></linearGradient><linearGradient id="linear-gradient-2" x1="666.08" y1="356.1" x2="666.08" y2="430.8" gradientTransform="matrix(0, 1, 1, 0, 276.77, -289.52)" xlink:href="#linear-gradient"/><linearGradient id="linear-gradient-3" x1="788.1" y1="132.74" x2="788.1" y2="201.29" xlink:href="#linear-gradient"/><linearGradient id="linear-gradient-4" x1="644.32" y1="354.73" x2="644.32" y2="430.83" gradientTransform="matrix(0, 1, 1, 0, 255.69, -267.21)" xlink:href="#linear-gradient"/><linearGradient id="linear-gradient-5" x1="774.27" y1="121.55" x2="774.27" y2="167.26" xlink:href="#linear-gradient"/><linearGradient id="linear-gradient-6" x1="626.13" y1="351.84" x2="626.13" y2="402.74" gradientTransform="matrix(0, 1, 1, 0, 252.9, -233.63)" xlink:href="#linear-gradient"/><linearGradient id="linear-gradient-7" x1="763.93" y1="119.89" x2="763.93" y2="165.9" xlink:href="#linear-gradient"/><linearGradient id="linear-gradient-8" x1="619.33" y1="350.91" x2="619.33" y2="401.99" gradientTransform="matrix(0, 1, 1, 0, 246.94, -226.02)" xlink:href="#linear-gradient"/><linearGradient id="linear-gradient-9" x1="573.61" y1="349.64" x2="573.61" y2="427.04" gradientTransform="matrix(0, 1, 1, 0, 189.4, -192.44)" xlink:href="#linear-gradient"/><linearGradient id="linear-gradient-10" x1="698.33" y1="170.18" x2="698.33" y2="206.57" xlink:href="#linear-gradient"/><linearGradient id="linear-gradient-11" x1="482.03" y1="349.64" x2="482.03" y2="495.5" gradientTransform="matrix(1, 0.01, 0.01, -1, 2.06, 661.03)" xlink:href="#linear-gradient"/><linearGradient id="linear-gradient-12" x1="482.33" y1="445.54" x2="482.33" y2="498.88" gradientTransform="matrix(1, 0.01, 0.01, -1, 2.06, 661.03)" xlink:href="#linear-gradient"/><linearGradient id="linear-gradient-13" x1="585.73" y1="116.02" x2="585.73" y2="154.14" xlink:href="#linear-gradient"/><linearGradient id="linear-gradient-14" x1="437.89" y1="349.52" x2="437.89" y2="391.95" gradientTransform="matrix(0, 1, 1, 0, 71.19, -39.83)" xlink:href="#linear-gradient"/><linearGradient id="linear-gradient-15" x1="570.62" y1="116.02" x2="570.62" y2="154.14" xlink:href="#linear-gradient"/><linearGradient id="linear-gradient-16" x1="422.78" y1="349.52" x2="422.78" y2="391.95" gradientTransform="matrix(0, 1, 1, 0, 56.08, -24.8)" xlink:href="#linear-gradient"/><linearGradient id="linear-gradient-17" x1="574.63" y1="115.59" x2="574.63" y2="153.95" xlink:href="#linear-gradient"/><linearGradient id="linear-gradient-18" x1="429.75" y1="349.66" x2="429.75" y2="392.24" gradientTransform="matrix(0, 1, 1, 0, 62.83, -31.96)" xlink:href="#linear-gradient"/><linearGradient id="linear-gradient-19" x1="712.43" y1="204.66" x2="712.43" y2="210.56" gradientTransform="matrix(1, 0.01, 0.01, -1, -142.91, 516.22)" gradientUnits="userSpaceOnUse"><stop offset="0" stop-opacity="0.12"/><stop offset="0.55" stop-opacity="0.09"/><stop offset="1" stop-opacity="0.02"/></linearGradient></defs><g id="Layer_9_copy" data-name="Layer 9 copy"><path class="cls-1" d="M265.31,231.86h-2.92V151.77A46.35,46.35,0,0,0,216,105.42H46.35A46.35,46.35,0,0,0,0,151.77H0V591.16a46.35,46.35,0,0,0,46.35,46.35H216a46.35,46.35,0,0,0,46.35-46.35h0V288.87h2.92Z" transform="translate(0 -105.42)"/><path class="cls-2" d="M217.91,117.48H195.76a16.45,16.45,0,0,1-15.23,22.66H83.32a16.46,16.46,0,0,1-15.23-22.66H47.41A34.62,34.62,0,0,0,12.79,152.1h0V590.83a34.62,34.62,0,0,0,34.62,34.62h170.5a34.62,34.62,0,0,0,34.61-34.62h0V152.1a34.62,34.62,0,0,0-34.61-34.62Z" transform="translate(0 -105.42)"/><path class="cls-1" d="M986.65,241h-2.92V160.89a46.36,46.36,0,0,0-46.36-46.35H767.69a46.35,46.35,0,0,0-46.35,46.35h0V600.27a46.36,46.36,0,0,0,46.35,46.36H937.37a46.37,46.37,0,0,0,46.36-46.36h0V298h2.92Z" transform="translate(0 -105.42)"/><path class="cls-2" d="M939.24,126.6H917.09a16.45,16.45,0,0,1-15.22,22.66H804.66a16.44,16.44,0,0,1-15.23-22.66H768.75a34.62,34.62,0,0,0-34.62,34.61h0V600a34.62,34.62,0,0,0,34.62,34.62H939.24A34.62,34.62,0,0,0,973.86,600h0V161.21a34.62,34.62,0,0,0-34.62-34.61Z" transform="translate(0 -105.42)"/><path class="cls-1" d="M664.52,238.69h-2.93V158.6a46.35,46.35,0,0,0-46.35-46.35H445.56A46.36,46.36,0,0,0,399.2,158.6h0V598a46.37,46.37,0,0,0,46.36,46.36H615.24A46.36,46.36,0,0,0,661.59,598h0V295.7h2.93Z" transform="translate(0 -105.42)"/><path class="cls-2" d="M617.11,124.31H595A16.43,16.43,0,0,1,579.73,147H482.52a16.44,16.44,0,0,1-15.22-22.65H446.61A34.62,34.62,0,0,0,412,158.92h0V597.66a34.62,34.62,0,0,0,34.62,34.62h170.5a34.62,34.62,0,0,0,34.62-34.62h0V158.92a34.62,34.62,0,0,0-34.62-34.61Z" transform="translate(0 -105.42)"/></g><g id="Layer_10" data-name="Layer 10"><polygon class="cls-3" points="103.88 559.08 40.25 559.08 33.43 504.54 110.7 504.54 103.88 559.08"/><path class="cls-3" d="M23.91,589.79C40.29,611.73,74.3,614,74.3,614s7.45-33.27-8.93-55.21S15,534.58,15,534.58,7.52,567.84,23.91,589.79Z" transform="translate(0 -105.42)"/><path class="cls-3" d="M107.37,598c-10.81,14.47-33.25,16-33.25,16s-4.91-21.95,5.9-36.43,33.25-16,33.25-16S118.19,583.56,107.37,598Z" transform="translate(0 -105.42)"/></g><g id="Layer_3" data-name="Layer 3"><rect class="cls-4" x="86.87" y="290.15" width="98.6" height="110.26"/><path class="cls-2" d="M137.47,640.49l-1.69,23.16a7.37,7.37,0,0,0,6.81,7.89,6.54,6.54,0,0,0,1,0l11.89-.72a3.77,3.77,0,0,0,3.53-4,4.13,4.13,0,0,0-.11-.69l-6.6-26.41Z" transform="translate(0 -105.42)"/><path class="cls-2" d="M237,654.19c14,3.27,24,7.93,30.57,14.23a13.51,13.51,0,0,0,8.62,3.7,22.14,22.14,0,0,0,10-1.38h0a4,4,0,0,0,2.36-3.27,4.05,4.05,0,0,0-1.7-3.74l-33.2-23.62-14.1,5.64L236.25,649a3.27,3.27,0,0,0,0,4.61,3.23,3.23,0,0,0,.72.54Z" transform="translate(0 -105.42)"/><path class="cls-5" d="M193.88,276.08,99,275.2c.24-13.82,3.46-27.4,10.49-39.54,4.61-8,4.51-16.66,3.4-24-1.72-11.28,2.28-22.83,11.15-30a35.79,35.79,0,0,1,24.06-8l1.84.08a35.87,35.87,0,0,1,29.47,17.72,29.88,29.88,0,0,1,3.55,18.2c-.6,5.92.84,11.89,4.2,17.93C193,240.88,194.21,257.83,193.88,276.08Z" transform="translate(0 -105.42)"/><path class="cls-6" d="M257.38,641.34l-18.63,4.86-90.7-197.6,5.67,192.74H135.1C115.19,550.66,79.26,446,95.42,413l96.36-5.67Z" transform="translate(0 -105.42)"/><circle class="cls-7" cx="147.24" cy="112.39" r="25.1"/><path class="cls-7" d="M169.11,264l-41.3-2.43c4.05-9.29,5.66-18.24,4.05-26.73h30.77C162.56,241.33,165.8,252.6,169.11,264Z" transform="translate(0 -105.42)"/><polygon class="cls-6" points="195.02 309.17 104.33 315.65 113.64 154.9 129.43 150.45 147.25 154.5 165.06 145.59 176.4 149.64 195.02 309.17"/><path class="cls-8" d="M119.71,530.39,57.76,516.22c18.42-61.08,51.61-200.83,40.9-250.63L131.05,251Z" transform="translate(0 -105.42)"/><path class="cls-8" d="M89.75,353.85,66.26,339.28l20-58.66a27.69,27.69,0,0,1,12.1-14.37l6.74-3.9-4,59.11Z" transform="translate(0 -105.42)"/><path class="cls-8" d="M248.88,517c-19.56,11.32-68.43,17.62-89.89,9.72-1.58-55.19-4.68-211.31,5.26-277.36L199.88,264l-3.24,43.73C179.61,345.1,229.07,475.4,248.88,517Z" transform="translate(0 -105.42)"/><polygon class="cls-8" points="246.04 241.15 224.18 233.86 195.02 200.66 199.88 158.54 248.47 226.57 246.04 241.15"/><path class="cls-7" d="M177.52,378.09a6.07,6.07,0,0,0,7.26,4.58l18.56-4.2-2.68-11.85-18.56,4.2a6.08,6.08,0,0,0-4.58,7.27Z" transform="translate(0 -105.42)"/><path class="cls-5" d="M169.11,211.33c-13.94-5.74-27.72-6.15-41.3-.81l-5.67-20.25H174Z" transform="translate(0 -105.42)"/><path class="cls-8" d="M194.21,364.38l10.53,19.44c17.71-4.94,33.06-20.51,47.78-38.87l-4.05-13-25.1,6.48Z" transform="translate(0 -105.42)"/><path class="cls-1" d="M186.52,324.3h-3.24c0-45.82-9.43-77.75-18.62-77.75l-.81-3.23c8.24,0,13.5,13.28,16.45,24.43C184.31,282.86,186.52,302.94,186.52,324.3Z" transform="translate(0 -105.42)"/><path class="cls-1" d="M112,313h-3.24c0-42,9.5-68,23.48-68l-.81,3.24C121.78,248.17,112,268.21,112,313Z" transform="translate(0 -105.42)"/><circle class="cls-1" cx="184.9" cy="325.11" r="8.1" transform="translate(-165.63 350.12) rotate(-80.78)"/><path class="cls-1" d="M99.06,332.39H95.82c0-11.61,6.54-21.05,14.58-21.05v3.24C104.15,314.58,99.06,322.57,99.06,332.39Z" transform="translate(0 -105.42)"/><path class="cls-1" d="M125,332.39h-3.23c0-9.82-5.09-17.81-11.34-17.81v-3.24C118.44,311.34,125,320.78,125,332.39Z" transform="translate(0 -105.42)"/><circle class="cls-1" cx="123.36" cy="227.78" r="3.24"/><circle class="cls-1" cx="97.44" cy="227.78" r="3.24"/><polygon class="cls-9" points="56.95 198 77.16 201.61 123.36 267.29 98.81 261.51 56.95 198"/><path class="cls-1" d="M53.37,302.61a1.74,1.74,0,0,0-1.7,1.75,1.81,1.81,0,0,0,.29.92l43.18,65.51a1.69,1.69,0,0,0,1,.73l20.09,4.72a1.71,1.71,0,0,0,2.06-1.27,1.73,1.73,0,0,0-.27-1.38L70.65,306.18a1.66,1.66,0,0,0-1.1-.7l-15.86-2.84Z" transform="translate(0 -105.42)"/><path class="cls-7" d="M80.3,349.46l1.2,12.08,18.94-1.88a6.07,6.07,0,1,0-1.2-12.08Z" transform="translate(0 -105.42)"/><path class="cls-2" d="M63.83,348.06a15.62,15.62,0,0,0,15.61,15.51h3.11l2.27-18.89-18.77-6.76Z" transform="translate(0 -105.42)"/><path class="cls-5" d="M863.08,208.86s-14.61-5.21-24,15.65-24,43.82-24,43.82l8.34,2.09s2.09-14.61,7.31-16.7l-2.09,18.78s62.59,21.91,90.76-2.08l-1-7.31s4.17,1.05,4.17,7.31l3.13-3.13s-3.13-6.26-12.52-14.61c-6.16-5.48-8.28-15.9-9-22.41a27.12,27.12,0,0,0-6.24-14.78C891.66,208.26,880.29,200.58,863.08,208.86Z" transform="translate(0 -105.42)"/><path class="cls-7" d="M847.67,290.67l-15.13-18.91L821.2,233l43.49-46.33s9.45-35.93.94-34S855.23,181,855.23,181L800.4,223.54s5.67,59.57,21.74,80.37l12.29,38.76Z" transform="translate(0 -105.42)"/><path class="cls-7" d="M889.27,290.67l15.13-18.91L915.74,233l-43.49-46.33s-9.45-35.93-.94-34S881.71,181,881.71,181l54.83,42.54s-5.67,59.57-21.74,80.37l-12.29,38.76Z" transform="translate(0 -105.42)"/><circle class="cls-7" cx="868.47" cy="144.59" r="24.58"/><path class="cls-7" d="M857.13,263.25s.94,19.86-4.73,26.47-11.35,40.66,16.07,41.6S893.05,303,893.05,303l-5.67-16.07s-8.51-12.29-5.67-23.64Z" transform="translate(0 -105.42)"/><path class="cls-7" d="M831.6,483.54l20.33,6.15s16.54-9.93,16.54-.48-5.67,21.75-3.78,30.26,5.67,29.31,0,29.31-17-36.87-17-36.87l-18.91-10.4Z" transform="translate(0 -105.42)"/><path class="cls-7" d="M857.13,615.91l-7.57,29.3s-6.62,8.51,0,12.29c3.11,1.78,5.38,5.43,6.92,8.8a16.18,16.18,0,0,0,15.88,9.61c3.22-.27,5.94-1.55,6.6-4.86a7.61,7.61,0,0,0-1.46-6c-7-9.43-8.56-15.62-8.56-15.62l2.84-33.09Z" transform="translate(0 -105.42)"/><path class="cls-5" d="M838.82,254.38s8.34-11.47,15.65-13.56,8.34-12.52,8.34-12.52,18.78,20.86,30.26,21.91,1-25,1-25L873.24,220,853.42,222l-15.65,10.43Z" transform="translate(0 -105.42)"/><path class="cls-5" d="M823.09,411.69l-3.78,7.56S727.6,448.56,735.16,476s50.11,19.85,50.11,19.85l47.27,8.51,4.73-20.8L804.18,475l56.73-20.8,1.89,96.44-7.57,69,18.91,1.89s20.8-63.35,18-89.82c0,0,35-107.78,15.12-123.85S823.09,411.69,823.09,411.69Z" transform="translate(0 -105.42)"/><path class="cls-10" d="M869.58,303l-14.75-17.83-10,4.58-10.4,33.1a35.15,35.15,0,0,0,1.9,33.09s1.89,11.34-1,14.18-3.78,20.8-3.78,20.8l-12.29,23.63s70,12.29,90.76-4.72c0,0-10.91-40.24-4.3-52.53s7.57-31.14,0-39.65-15.55-30.73-15.55-30.73L885.64,284Z" transform="translate(0 -105.42)"/></g><g id="Layer_14" data-name="Layer 14"><circle class="cls-11" cx="476.01" cy="236.27" r="56.12"/><circle class="cls-11" cx="624.08" cy="225.96" r="56.12"/><g id="ff8ee4b4-5abc-4927-bead-5d69132ee8f9"><path class="cls-12" d="M645.67,353.18a13.83,13.83,0,0,1-3.72-9.51,14.08,14.08,0,0,1,7-12,8.13,8.13,0,0,1-1.42-4.63,8.58,8.58,0,0,1,8.76-8.38,8.68,8.68,0,0,1,8.34,6.11,13,13,0,0,1,11.15-6,12.77,12.77,0,0,1,12.93,12.62,11.89,11.89,0,0,1-.82,4.33c.27,0,.53,0,.8,0a10.27,10.27,0,0,1,10.38,10.13q0,.51-.06,1a12.52,12.52,0,0,1,7.77,11.54,12.74,12.74,0,0,1-13,12.44,13,13,0,0,1-2.24-.2c0,.42.06.84,0,1.27a14.29,14.29,0,0,1-14.6,14,14.77,14.77,0,0,1-8.27-2.54,11.06,11.06,0,0,1-7,2.46,10.67,10.67,0,0,1-10.8-10.54c0-.25,0-.5,0-.74h0a11.42,11.42,0,0,1-11.56-11.29A11.19,11.19,0,0,1,645.67,353.18Z" transform="translate(0 -105.42)"/></g><path id="c200c6c4-addf-434c-9e0f-5ce7230e9a19" class="cls-13" d="M646.84,353.14a13.31,13.31,0,0,1-3.56-9.11A13.5,13.5,0,0,1,650,332.54a7.82,7.82,0,0,1-1.35-4.45,8.21,8.21,0,0,1,8.39-8,8.33,8.33,0,0,1,8,5.85,12.54,12.54,0,0,1,10.66-5.75A12.25,12.25,0,0,1,688,332.27a11.75,11.75,0,0,1-.79,4.14c.25,0,.51,0,.76,0a9.81,9.81,0,0,1,9.93,9.7c0,.32,0,.65,0,1a12,12,0,0,1,7.43,11A12.18,12.18,0,0,1,692.84,370a12.92,12.92,0,0,1-2.15-.19c0,.4,0,.8,0,1.21a13.68,13.68,0,0,1-14,13.36,14.11,14.11,0,0,1-7.91-2.43,10.59,10.59,0,0,1-6.72,2.36,10.23,10.23,0,0,1-10.34-10.09c0-.24,0-.48.05-.72h0a10.94,10.94,0,0,1-11.07-10.81A10.71,10.71,0,0,1,646.84,353.14Z" transform="translate(0 -105.42)"/><line id="_4f2fbb80-d4ec-4696-8eab-975803e285fc" data-name="4f2fbb80-d4ec-4696-8eab-975803e285fc" class="cls-14" x1="670.49" y1="233.79" x2="670.1" y2="308.49"/><rect class="cls-15" x="632.88" y="374.52" width="74.7" height="4.07" transform="matrix(0.01, -1, 1, 0.01, 290.11, 939.35)"/><rect class="cls-16" x="632.95" y="375.43" width="74.7" height="2.25" transform="translate(290.18 939.42) rotate(-89.7)"/><line id="_964f69dd-bb5e-4ecb-a4f0-6b0cfaf1e31d" data-name="964f69dd-bb5e-4ecb-a4f0-6b0cfaf1e31d" class="cls-14" x1="670.6" y1="256.16" x2="657.33" y2="242.48"/><rect class="cls-16" x="662.84" y="345.22" width="2.25" height="19.05" transform="translate(-59.62 456.95) rotate(-44.13)"/><line id="_72c4e71e-02d3-4be2-bc6f-3754e61bbdeb" data-name="72c4e71e-02d3-4be2-bc6f-3754e61bbdeb" class="cls-14" x1="670.54" y1="267.85" x2="684.42" y2="258.23"/><rect class="cls-16" x="669.03" y="367.33" width="16.89" height="2.25" transform="translate(-89.18 346.52) rotate(-34.76)"/><g id="_09ddf46a-2bb3-497c-83d6-f7ff730d3d58" data-name="09ddf46a-2bb3-497c-83d6-f7ff730d3d58"><path class="cls-17" d="M672.51,354.63a14.72,14.72,0,0,0-1.28-20.78,14.47,14.47,0,0,0-1.64-1.25,8.66,8.66,0,0,0,1.42-4.73,8.39,8.39,0,0,0-16.48-2.5,12.48,12.48,0,0,0-10.71-6.26,12.7,12.7,0,0,0-12.62,12.77,13.09,13.09,0,0,0,.75,4.43c-.25,0-.51,0-.77,0a10.21,10.21,0,0,0-10.13,10.24c0,.35,0,.7.05,1a12.82,12.82,0,0,0-7.63,11.71,12.67,12.67,0,0,0,12.44,12.86,12,12,0,0,0,2.16-.19c0,.43-.06.86-.06,1.3a14.18,14.18,0,0,0,14,14.42,13.73,13.73,0,0,0,8-2.51,10.28,10.28,0,0,0,6.77,2.59,10.6,10.6,0,0,0,10.54-10.67c0-.25,0-.5,0-.76h0a11.35,11.35,0,0,0,11.29-11.42A11.52,11.52,0,0,0,672.51,354.63Z" transform="translate(0 -105.42)"/></g><path id="c2060184-c570-49c2-acda-2f80a9472e25" class="cls-18" d="M670.89,354.56a13.83,13.83,0,0,0-1.21-19.51,14.72,14.72,0,0,0-1.53-1.17,8.14,8.14,0,0,0,1.33-4.44A7.87,7.87,0,0,0,654,327.09a11.7,11.7,0,0,0-10-5.87,11.9,11.9,0,0,0-11.84,12,12,12,0,0,0,.7,4.16c-.24,0-.48,0-.73,0a9.55,9.55,0,0,0-9.5,9.62c0,.33,0,.65,0,1a12,12,0,0,0-7.15,11A11.87,11.87,0,0,0,627.17,371a11.51,11.51,0,0,0,2-.17c0,.4-.06.8-.06,1.21a13.33,13.33,0,0,0,13.1,13.54,12.87,12.87,0,0,0,7.51-2.36,9.63,9.63,0,0,0,6.36,2.43,10,10,0,0,0,9.89-10c0-.24,0-.48,0-.71h0a10.81,10.81,0,0,0,4.89-20.34Z" transform="translate(0 -105.42)"/><rect class="cls-19" x="610.41" y="375.58" width="76.1" height="3.06" transform="matrix(0.01, -1, 1, 0.01, 267.91, 918.14)"/><rect class="cls-16" x="611.06" y="376.88" width="75.03" height="1.54" transform="translate(267.48 918.78) rotate(-89.7)"/><rect class="cls-16" x="645.36" y="355.2" width="18.59" height="1.54" transform="translate(-52.59 485.26) rotate(-46.9)"/><rect class="cls-16" x="640.96" y="361.44" width="1.54" height="16.31" transform="matrix(0.6, -0.8, 0.8, 0.6, -39.17, 555.38)"/><g id="db20f295-6229-40c0-b196-6bb997b23afd"><path class="cls-20" d="M613.45,376.57a9.5,9.5,0,0,1-2.53-6.49,9.61,9.61,0,0,1,4.76-8.18,5.59,5.59,0,0,1-1-3.17,5.84,5.84,0,0,1,6-5.71,5.92,5.92,0,0,1,5.68,4.16,9,9,0,0,1,7.61-4.09,8.72,8.72,0,0,1,8.81,8.6,8.14,8.14,0,0,1-.56,3l.54,0a7,7,0,0,1,7.06,6.91,5.32,5.32,0,0,1,0,.69,8.55,8.55,0,0,1,5.3,7.86,8.68,8.68,0,0,1-8.88,8.48,10,10,0,0,1-1.54-.13,8.12,8.12,0,0,1,0,.86,9.73,9.73,0,0,1-10,9.5,10.08,10.08,0,0,1-5.61-1.7,7.53,7.53,0,0,1-4.8,1.66,7.28,7.28,0,0,1-7.36-7.18,2.85,2.85,0,0,1,0-.51h0a7.79,7.79,0,0,1-7.88-7.7A7.65,7.65,0,0,1,613.45,376.57Z" transform="translate(0 -105.42)"/></g><path id="_3f6c00ca-74d6-4e4e-a4d6-8f160f37aa24" data-name="3f6c00ca-74d6-4e4e-a4d6-8f160f37aa24" class="cls-13" d="M614.25,376.55a9.07,9.07,0,0,1-2.43-6.21,9.17,9.17,0,0,1,4.55-7.83,5.3,5.3,0,0,1-.92-3,5.58,5.58,0,0,1,5.71-5.47,5.67,5.67,0,0,1,5.44,4,8.55,8.55,0,0,1,7.28-3.92,8.33,8.33,0,0,1,8.43,8.23,7.81,7.81,0,0,1-.53,2.83l.52,0a6.69,6.69,0,0,1,6.76,6.61q0,.33,0,.66a8.18,8.18,0,0,1,5.07,7.53,8.31,8.31,0,0,1-8.5,8.11,7.93,7.93,0,0,1-1.46-.13,7.56,7.56,0,0,1,0,.83,9.32,9.32,0,0,1-9.53,9.1,9.6,9.6,0,0,1-5.39-1.66,7.18,7.18,0,0,1-4.59,1.61,7,7,0,0,1-7.06-6.88c0-.16,0-.32,0-.48h0a7.47,7.47,0,0,1-7.55-7.37A7.3,7.3,0,0,1,614.25,376.55Z" transform="translate(0 -105.42)"/><line id="_8a7e076a-6ecd-440d-86c8-bd2eb9f9fc08" data-name="8a7e076a-6ecd-440d-86c8-bd2eb9f9fc08" class="cls-14" x1="630.37" y1="261.63" x2="630.1" y2="312.53"/><rect class="cls-21" x="604.74" y="391.11" width="50.9" height="2.77" transform="translate(234.34 915.17) rotate(-89.7)"/><rect class="cls-16" x="604.78" y="391.73" width="50.9" height="1.53" transform="translate(234.39 915.22) rotate(-89.7)"/><line id="cd90862a-73c1-467f-8a8f-23aaf7962413" class="cls-14" x1="630.45" y1="276.88" x2="621.41" y2="267.55"/><rect class="cls-16" x="625.16" y="371.14" width="1.53" height="12.98" transform="translate(-86.3 436.92) rotate(-44.13)"/><line id="f406e355-8aa2-4ce0-9f47-8fc27dbb63cd" class="cls-14" x1="630.4" y1="284.84" x2="639.86" y2="278.28"/><rect class="cls-16" x="629.38" y="386.21" width="11.51" height="1.53" transform="translate(-107.29 325.69) rotate(-34.76)"/><g id="af04bae7-87e5-447e-b22a-307a28405780"><path class="cls-22" d="M639.52,378.22a9.86,9.86,0,0,0-.84-13.93,10.28,10.28,0,0,0-1.11-.86,5.85,5.85,0,0,0,.94-3.17,5.64,5.64,0,0,0-11.07-1.68,8.38,8.38,0,0,0-7.18-4.2,8.53,8.53,0,0,0-8.47,8.57,9.08,9.08,0,0,0,.5,3l-.51,0a6.84,6.84,0,0,0-6.8,6.88h0a5.39,5.39,0,0,0,0,.7,8.59,8.59,0,0,0-5.12,7.86,8.5,8.5,0,0,0,8.35,8.63,8.78,8.78,0,0,0,1.45-.12c0,.28,0,.57,0,.86a9.54,9.54,0,0,0,9.37,9.69,9.22,9.22,0,0,0,5.37-1.69,6.91,6.91,0,0,0,4.54,1.74,7.12,7.12,0,0,0,7.08-7.16h0a4.35,4.35,0,0,0,0-.51h0a7.63,7.63,0,0,0,7.58-7.67A7.72,7.72,0,0,0,639.52,378.22Z" transform="translate(0 -105.42)"/></g><path id="e5433075-9388-42ed-900f-702a5a1be897" class="cls-18" d="M638.44,378.17a9.27,9.27,0,0,0-.81-13.09,9.71,9.71,0,0,0-1-.79,5.56,5.56,0,0,0,.89-3,5.29,5.29,0,0,0-10.39-1.58,7.85,7.85,0,0,0-6.75-3.94,8,8,0,0,0-7.94,8,8.11,8.11,0,0,0,.47,2.8c-.16,0-.31,0-.49,0A6.41,6.41,0,0,0,606,373a3.64,3.64,0,0,0,0,.66,8.05,8.05,0,0,0-4.8,7.37,8,8,0,0,0,7.84,8.1,7.81,7.81,0,0,0,1.36-.12,7.38,7.38,0,0,0,0,.82,9,9,0,0,0,8.79,9.09,8.64,8.64,0,0,0,5-1.59A6.49,6.49,0,0,0,628.5,399a6.69,6.69,0,0,0,6.64-6.72,3.93,3.93,0,0,0,0-.48h0a7.15,7.15,0,0,0,7.12-7.2h0A7.24,7.24,0,0,0,638.44,378.17Z" transform="translate(0 -105.42)"/><rect class="cls-23" x="597.84" y="392.28" width="51.08" height="2.05" transform="translate(226.76 909.17) rotate(-89.7)"/><rect class="cls-16" x="598.27" y="393.15" width="50.36" height="1.03" transform="translate(226.47 909.6) rotate(-89.7)"/><rect class="cls-16" x="621.3" y="378.6" width="12.48" height="1.03" transform="translate(-78.07 472.79) rotate(-46.9)"/><rect class="cls-16" x="618.34" y="382.79" width="1.03" height="10.95" transform="translate(-63.23 544.55) rotate(-53.1)"/><rect class="cls-24" x="539.03" y="337.7" width="77.4" height="86.96" transform="translate(193.49 851.45) rotate(-89.7)"/><rect class="cls-8" x="510.67" y="308.86" width="74.94" height="141.85" transform="translate(165.44 820.47) rotate(-89.7)"/><path class="cls-25" d="M626,350.13l-139.38-.74.19-36.39,134.3.72a5.08,5.08,0,0,1,5.06,5.11Z" transform="translate(0 -105.42)"/><path class="cls-26" d="M486.81,314.44l133.1.71a5.1,5.1,0,0,1,5.06,5.12l-.15,28.92h0l-138.19-.74h0l.18-34Z" transform="translate(0 -105.42)"/><path class="cls-27" d="M487.42,314.43l133.1.71a5.1,5.1,0,0,1,5.06,5.12l-.16,28.92h0l-138.19-.74h0l.19-34Z" transform="translate(0 -105.42)"/><polygon class="cls-28" points="486.72 168.11 438.43 201.73 438.28 230.27 437.83 313.71 534.05 314.22 534.49 230.79 534.64 202.24 486.72 168.11"/><polygon class="cls-26" points="532.49 201.66 487.03 168.11 441.21 201.17 441.06 229.23 532.34 229.72 532.49 201.66"/><polygon class="cls-29" points="532.42 201.66 486.96 168.11 441.14 201.17 440.99 229.23 532.27 229.72 532.42 201.66"/><rect class="cls-8" x="445.47" y="330.27" width="82.03" height="91.28" transform="translate(107.99 754.96) rotate(-89.7)"/><polygon class="cls-30" points="538.26 218.34 486.96 181.29 434.64 217.79 431.32 204.84 487.04 164.73 542.34 205.43 538.26 218.34"/><polygon class="cls-26" points="537.8 216.44 486.97 179.03 435.75 215.9 433.63 204.26 487.04 165.82 540.04 204.82 537.8 216.44"/><rect class="cls-31" x="454.36" y="358.95" width="64.14" height="51.81" transform="translate(99 763.81) rotate(-89.7)"/><rect class="cls-26" x="481.02" y="332.43" width="11.1" height="51.81" transform="translate(125.66 737.57) rotate(-89.7)"/><rect class="cls-26" x="480.74" y="385.47" width="11.1" height="51.81" transform="translate(72.34 790.05) rotate(-89.7)"/><path class="cls-32" d="M573.14,394.32a.46.46,0,1,0-.46-.46A.46.46,0,0,0,573.14,394.32Z" transform="translate(0 -105.42)"/><rect class="cls-31" x="549.6" y="381.31" width="46.87" height="25.29" transform="translate(176.05 859.46) rotate(-89.7)"/><rect class="cls-31" x="595.53" y="357.57" width="17.27" height="23.75" transform="translate(231.51 866.21) rotate(-89.7)"/><rect class="cls-33" x="600.33" y="352.79" width="7.71" height="23.75" transform="translate(236.31 861.48) rotate(-89.7)"/><g id="_47cb54cf-6c9b-4864-bf0d-76585f8d162f" data-name="47cb54cf-6c9b-4864-bf0d-76585f8d162f"><path class="cls-34" d="M428,384.78a7.88,7.88,0,0,1-2.13-5.41,8,8,0,0,1,4-6.82,4.61,4.61,0,0,1-.8-2.64,4.87,4.87,0,0,1,5-4.76,5,5,0,0,1,4.75,3.48,7.43,7.43,0,0,1,6.34-3.41,7.26,7.26,0,0,1,7.34,7.17,6.68,6.68,0,0,1-.47,2.46c.16,0,.31,0,.46,0a5.81,5.81,0,0,1,5.89,5.75,5.63,5.63,0,0,1,0,.58,7.1,7.1,0,0,1,4.41,6.55,7.23,7.23,0,0,1-7.39,7.07,7.81,7.81,0,0,1-1.28-.11,5.54,5.54,0,0,1,0,.71,8.12,8.12,0,0,1-8.29,7.94,8.46,8.46,0,0,1-4.7-1.45,6.25,6.25,0,0,1-4,1.4,6.09,6.09,0,0,1-6.14-6c0-.14,0-.29,0-.42h0a6.5,6.5,0,0,1-6.57-6.42A6.34,6.34,0,0,1,428,384.78Z" transform="translate(0 -105.42)"/></g><path id="_3ed80c62-65f0-4ea6-94fa-12b45cf1e111" data-name="3ed80c62-65f0-4ea6-94fa-12b45cf1e111" class="cls-13" d="M428.63,384.76a7.57,7.57,0,0,1,1.78-11.71,4.36,4.36,0,0,1-.77-2.52A4.66,4.66,0,0,1,434.4,366h0a4.73,4.73,0,0,1,4.53,3.32A7.09,7.09,0,0,1,445,366a7,7,0,0,1,7,6.86,6.49,6.49,0,0,1-.44,2.35c.14,0,.29,0,.43,0a5.57,5.57,0,0,1,5.64,5.51,5.21,5.21,0,0,1,0,.55,6.78,6.78,0,0,1,4.22,6.27,6.92,6.92,0,0,1-7.08,6.77,7.3,7.3,0,0,1-1.23-.11q0,.34,0,.69a7.77,7.77,0,0,1-7.94,7.59,8,8,0,0,1-4.48-1.39,5.92,5.92,0,0,1-3.83,1.34,5.79,5.79,0,0,1-5.87-5.73,2.82,2.82,0,0,1,0-.41h0a6.21,6.21,0,0,1-6.29-6.14A6.08,6.08,0,0,1,428.63,384.76Z" transform="translate(0 -105.42)"/><line id="b49a21fb-81f1-4431-9ecd-ca46c91409d2" class="cls-14" x1="442.07" y1="271.42" x2="441.85" y2="313.86"/><rect class="cls-35" x="420.7" y="396.9" width="42.44" height="2.31" transform="matrix(0.01, -1, 1, 0.01, 41.51, 732.43)"/><rect class="cls-16" x="420.74" y="397.42" width="42.44" height="1.28" transform="translate(41.55 732.47) rotate(-89.7)"/><line id="_46369620-a42d-4543-9046-c39c6dd80f7a" data-name="46369620-a42d-4543-9046-c39c6dd80f7a" class="cls-14" x1="442.13" y1="284.13" x2="434.6" y2="276.36"/><rect class="cls-16" x="437.72" y="380.25" width="1.28" height="10.82" transform="translate(-144.81 308.6) rotate(-44.13)"/><line id="_062fca71-ec11-4619-a966-9015ca52f87c" data-name="062fca71-ec11-4619-a966-9015ca52f87c" class="cls-14" x1="442.1" y1="290.77" x2="449.98" y2="285.3"/><rect class="cls-16" x="441.24" y="392.81" width="9.6" height="1.28" transform="translate(-144.72 219.05) rotate(-34.76)"/><g id="a27ca12e-65b6-46c0-899b-83e3c1e240bd"><path class="cls-36" d="M412.87,384.7a7.88,7.88,0,0,1-2.13-5.41,8,8,0,0,1,4-6.82,4.61,4.61,0,0,1-.8-2.64,4.87,4.87,0,0,1,5-4.76,5,5,0,0,1,4.75,3.48,7.43,7.43,0,0,1,6.34-3.41,7.26,7.26,0,0,1,7.34,7.17,6.68,6.68,0,0,1-.47,2.46c.16,0,.31,0,.46,0a5.81,5.81,0,0,1,5.89,5.75,5.63,5.63,0,0,1,0,.58,7.1,7.1,0,0,1,4.41,6.55,7.23,7.23,0,0,1-7.39,7.07,7.81,7.81,0,0,1-1.28-.11,5.54,5.54,0,0,1,0,.71,8.12,8.12,0,0,1-8.29,7.94,8.46,8.46,0,0,1-4.7-1.45,6.25,6.25,0,0,1-4,1.4,6.09,6.09,0,0,1-6.14-6c0-.14,0-.29,0-.42h0a6.5,6.5,0,0,1-6.57-6.42A6.34,6.34,0,0,1,412.87,384.7Z" transform="translate(0 -105.42)"/></g><path id="_685c56b8-497f-4668-a7ee-09f5fbc3598c" data-name="685c56b8-497f-4668-a7ee-09f5fbc3598c" class="cls-13" d="M413.52,384.68A7.57,7.57,0,0,1,415.3,373a4.36,4.36,0,0,1-.77-2.52,4.66,4.66,0,0,1,4.76-4.56h0a4.74,4.74,0,0,1,4.54,3.32,7.09,7.09,0,0,1,6.06-3.26,7,7,0,0,1,7,6.86,6.49,6.49,0,0,1-.44,2.35l.43,0a5.59,5.59,0,0,1,5.64,5.51,5.25,5.25,0,0,1,0,.56,6.78,6.78,0,0,1,4.22,6.27,6.92,6.92,0,0,1-7.08,6.77,7.3,7.3,0,0,1-1.23-.11q0,.35,0,.69a7.77,7.77,0,0,1-7.94,7.59A8,8,0,0,1,426,401a5.92,5.92,0,0,1-3.83,1.34,5.79,5.79,0,0,1-5.87-5.73,2.82,2.82,0,0,1,0-.41h0a6.23,6.23,0,0,1-6.29-6.14A6.08,6.08,0,0,1,413.52,384.68Z" transform="translate(0 -105.42)"/><line id="_6da80e84-a8c0-407e-a753-005b95fbf056" data-name="6da80e84-a8c0-407e-a753-005b95fbf056" class="cls-14" x1="426.96" y1="271.34" x2="426.74" y2="313.77"/><rect class="cls-37" x="405.59" y="396.82" width="42.44" height="2.31" transform="translate(26.57 717.24) rotate(-89.7)"/><rect class="cls-16" x="405.63" y="397.34" width="42.44" height="1.28" transform="translate(26.6 717.28) rotate(-89.7)"/><line id="_956986cd-9b04-40a5-a6ac-3e412b0f623a" data-name="956986cd-9b04-40a5-a6ac-3e412b0f623a" class="cls-14" x1="427.02" y1="284.05" x2="419.49" y2="276.28"/><rect class="cls-16" x="422.62" y="380.17" width="1.28" height="10.82" transform="translate(-149.02 298.06) rotate(-44.13)"/><line id="_52f85bb0-cc07-4469-ba3e-635298721117" data-name="52f85bb0-cc07-4469-ba3e-635298721117" class="cls-14" x1="426.99" y1="290.69" x2="434.87" y2="285.22"/><rect class="cls-16" x="426.13" y="392.74" width="9.6" height="1.28" transform="translate(-147.37 210.42) rotate(-34.76)"/><g id="_2b13a509-cfb1-48b6-9a8a-884e17259990" data-name="2b13a509-cfb1-48b6-9a8a-884e17259990"><path class="cls-38" d="M447.24,385.22a8.24,8.24,0,0,0-.7-11.63,9.23,9.23,0,0,0-.93-.72,4.87,4.87,0,0,0,.79-2.65,4.7,4.7,0,0,0-9.23-1.4,7,7,0,0,0-6-3.5,7.1,7.1,0,0,0-7.06,7.13h0a7.37,7.37,0,0,0,.42,2.47l-.43,0a5.7,5.7,0,0,0-5.67,5.73v0a5.52,5.52,0,0,0,0,.58,7.17,7.17,0,0,0-4.26,6.56,7,7,0,0,0,8.17,7.09c0,.24,0,.48,0,.72a7.93,7.93,0,0,0,7.81,8.06,7.66,7.66,0,0,0,4.48-1.41,5.69,5.69,0,0,0,3.79,1.45,5.93,5.93,0,0,0,5.89-6,3,3,0,0,0,0-.43h0a6.35,6.35,0,0,0,6.32-6.39A6.44,6.44,0,0,0,447.24,385.22Z" transform="translate(0 -105.42)"/></g><path id="ffc97756-bf62-44e2-b6c0-20f8128ede8f" class="cls-18" d="M446.33,385.17a7.72,7.72,0,0,0-.67-10.91,7.84,7.84,0,0,0-.86-.66,4.56,4.56,0,0,0,.74-2.48,4.41,4.41,0,0,0-8.66-1.32,6.56,6.56,0,0,0-5.62-3.28,6.77,6.77,0,0,0-6.22,9l-.41,0a5.33,5.33,0,0,0-5.31,5.38,3.25,3.25,0,0,0,0,.54,6.73,6.73,0,0,0-4,6.15,6.64,6.64,0,0,0,6.53,6.75,7.3,7.3,0,0,0,1.14-.09c0,.22,0,.45,0,.67a7.45,7.45,0,0,0,7.33,7.58,7.2,7.2,0,0,0,4.21-1.32,5.4,5.4,0,0,0,3.55,1.36,5.58,5.58,0,0,0,5.54-5.6h0a2.61,2.61,0,0,0,0-.4h0a6,6,0,0,0,5.93-6h0A6.06,6.06,0,0,0,446.33,385.17Z" transform="translate(0 -105.42)"/><rect class="cls-39" x="412.49" y="396.94" width="42.58" height="1.71" transform="translate(33.68 724.03) rotate(-89.7)"/><rect class="cls-16" x="412.85" y="397.67" width="41.99" height="0.86" transform="translate(33.44 724.39) rotate(-89.7)"/><rect class="cls-16" x="432.05" y="385.53" width="10.4" height="0.86" transform="translate(-143.33 336.04) rotate(-46.9)"/><rect class="cls-16" x="429.58" y="389.03" width="0.86" height="9.13" transform="translate(-142.93 395.67) rotate(-53.1)"/><path class="cls-40" d="M570.63,309.46c-3.79,0-3.83,5.87,0,5.9S574.43,309.48,570.63,309.46Z" transform="translate(0 -105.42)"/><circle class="cls-3" cx="942.56" cy="420.78" r="6.96"/><circle class="cls-3" cx="973.07" cy="478.06" r="6.96"/><circle class="cls-3" cx="949.52" cy="463.61" r="6.96"/><path class="cls-3" d="M951.74,667.81c-.13-.2-3-5-4-15.08-.92-9.22-.33-24.75,7.73-46.42,15.26-41-3.52-74.16-3.71-74.49l.93-.54a82.76,82.76,0,0,1,7.75,22,95.83,95.83,0,0,1-4,53.43c-15.23,41-3.91,60.37-3.79,60.56Z" transform="translate(0 -105.42)"/><path class="cls-8" d="M945.77,530a7.5,7.5,0,1,1,7.49-7.5h0A7.5,7.5,0,0,1,945.77,530Zm0-13.92a6.43,6.43,0,1,0,6.42,6.42A6.43,6.43,0,0,0,945.77,516Z" transform="translate(0 -105.42)"/><circle class="cls-3" cx="967.72" cy="442.73" r="6.96"/><path class="cls-8" d="M952.73,572.77a7.5,7.5,0,1,1,7.49-7.49A7.49,7.49,0,0,1,952.73,572.77Zm0-13.91a6.42,6.42,0,1,0,6.42,6.42,6.42,6.42,0,0,0-6.42-6.42Z" transform="translate(0 -105.42)"/><path class="cls-8" d="M970.93,587.23a7.5,7.5,0,1,1,7.49-7.5h0A7.5,7.5,0,0,1,970.93,587.23Zm0-13.92a6.43,6.43,0,1,0,6.42,6.42A6.42,6.42,0,0,0,970.93,573.31Z" transform="translate(0 -105.42)"/><circle class="cls-3" cx="947.37" cy="496.8" r="6.96"/><path class="cls-3" d="M955.94,668.06s-7-17.13,13.92-30Z" transform="translate(0 -105.42)"/><path class="cls-3" d="M947.38,667.75s-3.17-18.21-27.68-18.06Z" transform="translate(0 -105.42)"/><path class="cls-41" d="M621.26,632.28s-95.71-67.52-94.8-136.67c1.67-19.12,13.22-24,13.22-24s27.34-9.76,12.46-33.35-55.61-17.9-55.61-17.9,41.93,17.9,23.4,27.66c-14.89,2.44-34,13-34,13S447,483,441.53,536.69s-.91,95.18-.91,95.18Z" transform="translate(0 -105.42)"/></g><g id="Layer_12" data-name="Layer 12"><path class="cls-42" d="M373.72,327.78l21.59,42.74,64.55,29.35c6.89,11.65,28.8,12.54,30.39,5,1.79-8.45-26.6-22.06-26.6-22.06l-54-36.52-4.73-31.43Z" transform="translate(0 -105.42)"/><polygon class="cls-42" points="376.26 509.18 372.28 541.03 395.37 542.62 397.76 509.18 376.26 509.18"/><path class="cls-5" d="M379.45,641.67a61.44,61.44,0,0,1-5.7-7c-3.31-4.58-6.24,18.92-6.24,18.92s-3.19,9.55-2.39,14.33,19.11,4.78,22.29,4,19.11,0,19.11,0h23.89c20.7-9.56,0-15.93,0-15.93-6.37-.79-27.87-20.7-27.87-20.7l-4.78-8.76c-3.18-.79-6.37,11.15-6.37,11.15Z" transform="translate(0 -105.42)"/><polygon class="cls-42" points="316.54 509.58 312.56 541.43 335.65 543.02 338.04 509.58 316.54 509.58"/><path class="cls-5" d="M319.73,642.07a61.44,61.44,0,0,1-5.7-7c-3.31-4.58-6.25,18.91-6.25,18.91s-3.18,8.76-2.38,13.54,19.11,4.78,22.29,4,19.11.8,19.11.8h23.89c20.7-9.56,0-15.93,0-15.93-6.37-.79-27.87-20.7-27.87-20.7L338,626.94c-3.18-.8-6.37,11.15-6.37,11.15Z" transform="translate(0 -105.42)"/><path class="cls-5" d="M342.82,409.56c-3.18,4-1.59,17.52-1.59,17.52s-5.58,43.79-3.19,47.77-1.59,7.17-4,12.74-4.78,19.11-4.78,19.11c-13.53,11.15-12.74,62.11-12.74,62.11l-4.77,45.39c1.59,4.78,23.88,5.57,27.07,4.78s12.74-72.46,12.74-72.46l21.5-40.61S371.49,614.2,371.49,619s21.5,2.39,26.27,2.39,4.78-79.63,4.78-79.63l4.78-20.7,25.48-94.76V415.13l-4-5.57S346,405.58,342.82,409.56Z" transform="translate(0 -105.42)"/><circle class="cls-42" cx="377.86" cy="98.7" r="24.68"/><path class="cls-42" d="M390.2,215.67c-5,11.14-2,26.7,8,43.79l-40.61-19.11,6.37-5.57-1.59-15.93Z" transform="translate(0 -105.42)"/><path class="cls-43" d="M390.2,241.15c5.32,3.16,8.5,9,10.32,14.88a140.84,140.84,0,0,1,6.06,33.69L408.51,324l23.89,90.78c-20.7,17.51-32.65,13.53-60.52-.8s-31.05,4.78-31.05,4.78-2.39-.8,0-3.19,0,0-2.39-2.39,0,0,.8-2.39,0-.79-.8-1.59,3.19-8,3.19-8l-6.37-59.72-8-84.41c9.56-11.94,36.63-22.29,36.63-22.29l24.69,17.52c8,3.18,1.59-9.56,1.59-9.56Z" transform="translate(0 -105.42)"/><path class="cls-42" d="M314.16,307.64,311,355.41l40.61,58.13c0,13.54,7.17,16.72,7.17,16.72a104.69,104.69,0,0,0,7.16-13.53c4-8.76-2.39-15.93-2.39-15.93l-27.87-58.92,12-29.47Z" transform="translate(0 -105.42)"/><path class="cls-43" d="M327.69,257.47C314.16,262.25,311.77,314,311.77,314c15.92-8.76,35,5.57,35,5.57s4-13.54,8.76-31.05a30.44,30.44,0,0,0-6.37-28.67S341.23,252.69,327.69,257.47Z" transform="translate(0 -105.42)"/><path class="cls-5" d="M355.16,211.69c3.15-2.52,7.43,2.05,7.43,2.05l2.52-22.62s15.71,1.88,25.76-.63,11.63,9.11,11.63,9.11a81.45,81.45,0,0,0,.32-14.14c-.63-5.66-8.8-11.31-23.26-15.08s-22,12.57-22,12.57C347.51,188,352,214.2,355.16,211.69Z" transform="translate(0 -105.42)"/></g></svg>